<mxfile host="app.diagrams.net" modified="2022-10-20T15:10:04.811Z" agent="5.0 (Windows)" etag="ddzGNraDjEBjLjDqQZN9" version="20.4.1" type="github">
  <diagram id="Vf8ScLjDU8h2pD3rkk8C" name="Page-1">
    <mxGraphModel dx="1292" dy="680" grid="0" gridSize="10" guides="1" tooltips="1" connect="1" arrows="1" fold="1" page="1" pageScale="1" pageWidth="1100" pageHeight="850" math="0" shadow="0">
      <root>
        <mxCell id="0" />
        <mxCell id="1" parent="0" />
        <mxCell id="_VPIxrVI58AnDgxVty4J-29" value="" style="rounded=1;whiteSpace=wrap;html=1;strokeColor=#0000CC;strokeWidth=1;shadow=1;sketch=0;glass=0;dashed=1;" vertex="1" parent="1">
          <mxGeometry x="517.5" y="2898" width="180" height="140" as="geometry" />
        </mxCell>
        <mxCell id="_VPIxrVI58AnDgxVty4J-28" value="" style="rounded=1;whiteSpace=wrap;html=1;strokeColor=#0000CC;strokeWidth=1;shadow=1;sketch=0;glass=0;dashed=1;" vertex="1" parent="1">
          <mxGeometry x="785" y="2666" width="241" height="263" as="geometry" />
        </mxCell>
        <mxCell id="_VPIxrVI58AnDgxVty4J-24" value="" style="rounded=1;whiteSpace=wrap;html=1;strokeColor=#0000CC;strokeWidth=1;shadow=1;sketch=0;glass=0;dashed=1;" vertex="1" parent="1">
          <mxGeometry x="190" y="2665" width="244" height="266" as="geometry" />
        </mxCell>
        <mxCell id="Gv2ncIB_xTtmmgyhVuqZ-37" value="" style="shape=link;html=1;rounded=0;fontSize=17;startArrow=classic;startFill=1;endArrow=classic;endFill=1;width=-4;exitX=0.983;exitY=0.363;exitDx=0;exitDy=0;exitPerimeter=0;" parent="1" source="Gv2ncIB_xTtmmgyhVuqZ-11" edge="1">
          <mxGeometry width="100" relative="1" as="geometry">
            <mxPoint x="675" y="2331.5" as="sourcePoint" />
            <mxPoint x="751" y="2331.5" as="targetPoint" />
          </mxGeometry>
        </mxCell>
        <mxCell id="Gv2ncIB_xTtmmgyhVuqZ-36" value="" style="shape=link;html=1;rounded=0;fontSize=17;startArrow=classic;startFill=1;endArrow=classic;endFill=1;width=-4;entryX=0;entryY=0.5;entryDx=0;entryDy=0;exitX=0.855;exitY=0.8555;exitDx=0;exitDy=0;exitPerimeter=0;" parent="1" source="Gv2ncIB_xTtmmgyhVuqZ-5" target="Gv2ncIB_xTtmmgyhVuqZ-11" edge="1">
          <mxGeometry width="100" relative="1" as="geometry">
            <mxPoint x="513" y="2328.5" as="sourcePoint" />
            <mxPoint x="589" y="2328.5" as="targetPoint" />
          </mxGeometry>
        </mxCell>
        <mxCell id="Gv2ncIB_xTtmmgyhVuqZ-17" value="" style="ellipse;whiteSpace=wrap;html=1;shadow=1;fillColor=#ffe6cc;strokeColor=#d79b00;" parent="1" vertex="1">
          <mxGeometry x="396" y="2116" width="457" height="124" as="geometry" />
        </mxCell>
        <mxCell id="Gv2ncIB_xTtmmgyhVuqZ-16" value="" style="shape=document;whiteSpace=wrap;html=1;boundedLbl=1;shadow=1;fillColor=#e1d5e7;strokeColor=#9673a6;" parent="1" vertex="1">
          <mxGeometry x="438" y="1997" width="386" height="80" as="geometry" />
        </mxCell>
        <mxCell id="Gv2ncIB_xTtmmgyhVuqZ-15" value="" style="shape=document;whiteSpace=wrap;html=1;boundedLbl=1;shadow=1;fillColor=#f5f5f5;fontColor=#333333;strokeColor=#666666;" parent="1" vertex="1">
          <mxGeometry x="440" y="1895" width="386" height="80" as="geometry" />
        </mxCell>
        <mxCell id="Gv2ncIB_xTtmmgyhVuqZ-14" value="" style="shape=document;whiteSpace=wrap;html=1;boundedLbl=1;shadow=1;fillColor=#fff2cc;strokeColor=#d6b656;" parent="1" vertex="1">
          <mxGeometry x="433" y="1800" width="386" height="80" as="geometry" />
        </mxCell>
        <mxCell id="Gv2ncIB_xTtmmgyhVuqZ-12" value="" style="ellipse;whiteSpace=wrap;html=1;fillColor=#d5e8d4;strokeColor=#82b366;shadow=1;" parent="1" vertex="1">
          <mxGeometry x="729" y="2294" width="120" height="80" as="geometry" />
        </mxCell>
        <mxCell id="Gv2ncIB_xTtmmgyhVuqZ-10" value="" style="ellipse;whiteSpace=wrap;html=1;fillColor=#d5e8d4;strokeColor=#82b366;shadow=1;" parent="1" vertex="1">
          <mxGeometry x="409" y="2289" width="120" height="80" as="geometry" />
        </mxCell>
        <mxCell id="AEICJIpf-HnAvJKy8O_x-12" value="" style="sketch=0;points=[[0,0,0],[0.25,0,0],[0.5,0,0],[0.75,0,0],[1,0,0],[0,1,0],[0.25,1,0],[0.5,1,0],[0.75,1,0],[1,1,0],[0,0.25,0],[0,0.5,0],[0,0.75,0],[1,0.25,0],[1,0.5,0],[1,0.75,0]];outlineConnect=0;fontColor=#232F3E;gradientColor=#945DF2;gradientDirection=north;fillColor=#5A30B5;strokeColor=#ffffff;dashed=0;verticalLabelPosition=bottom;verticalAlign=top;align=center;html=1;fontSize=12;fontStyle=0;aspect=fixed;shape=mxgraph.aws4.resourceIcon;resIcon=mxgraph.aws4.cloud_wan;shadow=1;strokeWidth=3;" parent="1" vertex="1">
          <mxGeometry x="470" y="372" width="179" height="179" as="geometry" />
        </mxCell>
        <mxCell id="AEICJIpf-HnAvJKy8O_x-10" value="" style="ellipse;whiteSpace=wrap;html=1;shadow=1;sketch=0;perimeterSpacing=4;strokeWidth=3;fillColor=#d5e8d4;strokeColor=#82b366;" parent="1" vertex="1">
          <mxGeometry x="286" y="425" width="120" height="80" as="geometry" />
        </mxCell>
        <mxCell id="AEICJIpf-HnAvJKy8O_x-13" value="" style="sketch=0;points=[[0,0,0],[0.25,0,0],[0.5,0,0],[0.75,0,0],[1,0,0],[0,1,0],[0.25,1,0],[0.5,1,0],[0.75,1,0],[1,1,0],[0,0.25,0],[0,0.5,0],[0,0.75,0],[1,0.25,0],[1,0.5,0],[1,0.75,0]];outlineConnect=0;fontColor=#232F3E;gradientColor=#F78E04;gradientDirection=north;fillColor=#3399FF;strokeColor=#ffffff;dashed=0;verticalLabelPosition=bottom;verticalAlign=top;align=center;html=1;fontSize=12;fontStyle=0;aspect=fixed;shape=mxgraph.aws4.resourceIcon;resIcon=mxgraph.aws4.vmware_cloud_on_aws;shadow=1;strokeWidth=3;" parent="1" vertex="1">
          <mxGeometry x="508" y="203" width="103" height="103" as="geometry" />
        </mxCell>
        <mxCell id="AEICJIpf-HnAvJKy8O_x-15" value="" style="verticalLabelPosition=bottom;html=1;verticalAlign=top;align=center;strokeColor=none;fillColor=#00BEF2;shape=mxgraph.azure.service_endpoint;shadow=1;sketch=0;strokeWidth=3;rotation=-90;" parent="1" vertex="1">
          <mxGeometry x="534" y="329" width="60" height="20" as="geometry" />
        </mxCell>
        <mxCell id="AEICJIpf-HnAvJKy8O_x-17" value="" style="verticalLabelPosition=bottom;html=1;verticalAlign=top;align=center;strokeColor=none;fillColor=#00BEF2;shape=mxgraph.azure.service_endpoint;shadow=1;sketch=0;strokeWidth=3;rotation=0;" parent="1" vertex="1">
          <mxGeometry x="649" y="463.11" width="60" height="20" as="geometry" />
        </mxCell>
        <mxCell id="AEICJIpf-HnAvJKy8O_x-18" value="" style="verticalLabelPosition=bottom;html=1;verticalAlign=top;align=center;strokeColor=none;fillColor=#00BEF2;shape=mxgraph.azure.service_endpoint;shadow=1;sketch=0;strokeWidth=3;rotation=-180;" parent="1" vertex="1">
          <mxGeometry x="410" y="459" width="60" height="20" as="geometry" />
        </mxCell>
        <mxCell id="AEICJIpf-HnAvJKy8O_x-19" value="" style="verticalLabelPosition=bottom;html=1;verticalAlign=top;align=center;strokeColor=none;fillColor=#00BEF2;shape=mxgraph.azure.service_endpoint;shadow=1;sketch=0;strokeWidth=3;rotation=90;" parent="1" vertex="1">
          <mxGeometry x="525" y="571" width="60" height="20" as="geometry" />
        </mxCell>
        <mxCell id="AEICJIpf-HnAvJKy8O_x-23" value="&lt;font style=&quot;font-size: 22px;&quot;&gt;&lt;b&gt;Kantoor&lt;/b&gt;&lt;/font&gt;" style="text;html=1;resizable=0;autosize=1;align=center;verticalAlign=middle;points=[];fillColor=none;strokeColor=none;rounded=0;shadow=1;sketch=0;strokeWidth=3;" parent="1" vertex="1">
          <mxGeometry x="287" y="507.23" width="102" height="38" as="geometry" />
        </mxCell>
        <mxCell id="AEICJIpf-HnAvJKy8O_x-24" value="&lt;font style=&quot;font-size: 22px;&quot;&gt;&lt;b&gt;SaaS&lt;/b&gt;&lt;/font&gt;" style="text;html=1;resizable=0;autosize=1;align=center;verticalAlign=middle;points=[];fillColor=none;strokeColor=none;rounded=0;shadow=1;sketch=0;strokeWidth=3;" parent="1" vertex="1">
          <mxGeometry x="528" y="162" width="72" height="38" as="geometry" />
        </mxCell>
        <mxCell id="AEICJIpf-HnAvJKy8O_x-26" value="&lt;font style=&quot;font-size: 22px;&quot;&gt;&lt;b&gt;Rekencentrum&lt;/b&gt;&lt;/font&gt;" style="text;html=1;resizable=0;autosize=1;align=center;verticalAlign=middle;points=[];fillColor=none;strokeColor=none;rounded=0;shadow=1;sketch=0;strokeWidth=3;" parent="1" vertex="1">
          <mxGeometry x="486" y="700" width="171" height="38" as="geometry" />
        </mxCell>
        <mxCell id="AEICJIpf-HnAvJKy8O_x-28" value="" style="group" parent="1" vertex="1" connectable="0">
          <mxGeometry x="513" y="612" width="120" height="91" as="geometry" />
        </mxCell>
        <mxCell id="AEICJIpf-HnAvJKy8O_x-29" value="" style="ellipse;whiteSpace=wrap;html=1;shadow=1;sketch=0;perimeterSpacing=4;strokeWidth=3;fillColor=#d5e8d4;strokeColor=#82b366;" parent="AEICJIpf-HnAvJKy8O_x-28" vertex="1">
          <mxGeometry y="11" width="120" height="80" as="geometry" />
        </mxCell>
        <mxCell id="AEICJIpf-HnAvJKy8O_x-30" value="" style="shadow=0;dashed=0;html=1;strokeColor=none;fillColor=#4495D1;labelPosition=center;verticalLabelPosition=bottom;verticalAlign=top;align=center;outlineConnect=0;shape=mxgraph.veeam.building;sketch=0;strokeWidth=3;" parent="AEICJIpf-HnAvJKy8O_x-28" vertex="1">
          <mxGeometry x="10.399999999999977" width="91.2" height="78" as="geometry" />
        </mxCell>
        <mxCell id="AEICJIpf-HnAvJKy8O_x-11" value="" style="ellipse;whiteSpace=wrap;html=1;shadow=1;sketch=0;perimeterSpacing=4;strokeWidth=3;fillColor=#E6E6E6;strokeColor=#E6E6E6;" parent="1" vertex="1">
          <mxGeometry x="453" y="1206" width="120" height="80" as="geometry" />
        </mxCell>
        <mxCell id="AEICJIpf-HnAvJKy8O_x-21" value="" style="shadow=0;dashed=0;html=1;strokeColor=none;fillColor=#B3B3B3;labelPosition=center;verticalLabelPosition=bottom;verticalAlign=top;align=center;outlineConnect=0;shape=mxgraph.veeam.building;sketch=0;strokeWidth=3;" parent="1" vertex="1">
          <mxGeometry x="467.4" y="1191" width="91.2" height="78" as="geometry" />
        </mxCell>
        <mxCell id="AEICJIpf-HnAvJKy8O_x-31" value="" style="ellipse;whiteSpace=wrap;html=1;shadow=1;sketch=0;perimeterSpacing=4;strokeWidth=3;fillColor=#E6E6E6;strokeColor=#E6E6E6;" parent="1" vertex="1">
          <mxGeometry x="241" y="1209" width="120" height="80" as="geometry" />
        </mxCell>
        <mxCell id="AEICJIpf-HnAvJKy8O_x-32" value="" style="sketch=0;aspect=fixed;pointerEvents=1;shadow=0;dashed=0;html=1;strokeColor=none;labelPosition=center;verticalLabelPosition=bottom;verticalAlign=top;align=center;fillColor=#00188D;shape=mxgraph.azure.enterprise;strokeWidth=3;" parent="1" vertex="1">
          <mxGeometry x="324" y="379" width="54" height="90" as="geometry" />
        </mxCell>
        <mxCell id="AEICJIpf-HnAvJKy8O_x-20" value="" style="sketch=0;aspect=fixed;pointerEvents=1;shadow=0;dashed=0;html=1;strokeColor=none;labelPosition=center;verticalLabelPosition=bottom;verticalAlign=top;align=center;fillColor=#B3B3B3;shape=mxgraph.azure.enterprise;strokeWidth=3;" parent="1" vertex="1">
          <mxGeometry x="268" y="1179" width="54" height="90" as="geometry" />
        </mxCell>
        <mxCell id="AEICJIpf-HnAvJKy8O_x-33" value="" style="endArrow=classic;startArrow=classic;html=1;rounded=0;fontSize=22;strokeWidth=3;entryX=-0.031;entryY=0.602;entryDx=0;entryDy=0;entryPerimeter=0;strokeColor=#999999;" parent="1" edge="1">
          <mxGeometry width="50" height="50" relative="1" as="geometry">
            <mxPoint x="369" y="1255" as="sourcePoint" />
            <mxPoint x="449.0319999999999" y="1254.976" as="targetPoint" />
          </mxGeometry>
        </mxCell>
        <mxCell id="AEICJIpf-HnAvJKy8O_x-34" value="" style="endArrow=classic;startArrow=classic;html=1;rounded=0;fontSize=22;strokeWidth=3;entryX=-0.031;entryY=0.602;entryDx=0;entryDy=0;entryPerimeter=0;strokeColor=#808080;" parent="1" edge="1">
          <mxGeometry width="50" height="50" relative="1" as="geometry">
            <mxPoint x="579" y="1252.02" as="sourcePoint" />
            <mxPoint x="659.0319999999999" y="1251.996" as="targetPoint" />
          </mxGeometry>
        </mxCell>
        <mxCell id="AEICJIpf-HnAvJKy8O_x-36" value="" style="html=1;verticalLabelPosition=bottom;align=center;labelBackgroundColor=#ffffff;verticalAlign=top;strokeWidth=2;strokeColor=#CCCCCC;shadow=1;dashed=0;shape=mxgraph.ios7.icons.cloud;sketch=0;fontSize=22;fillColor=#B3B3B3;" parent="1" vertex="1">
          <mxGeometry x="657" y="1197" width="97" height="78" as="geometry" />
        </mxCell>
        <mxCell id="AEICJIpf-HnAvJKy8O_x-37" value="" style="sketch=0;points=[[0,0,0],[0.25,0,0],[0.5,0,0],[0.75,0,0],[1,0,0],[0,1,0],[0.25,1,0],[0.5,1,0],[0.75,1,0],[1,1,0],[0,0.25,0],[0,0.5,0],[0,0.75,0],[1,0.25,0],[1,0.5,0],[1,0.75,0]];outlineConnect=0;fontColor=#232F3E;gradientColor=#B3B3B3;gradientDirection=north;fillColor=#E6E6E6;strokeColor=#ffffff;dashed=0;verticalLabelPosition=bottom;verticalAlign=top;align=center;html=1;fontSize=12;fontStyle=0;aspect=fixed;shape=mxgraph.aws4.resourceIcon;resIcon=mxgraph.aws4.vmware_cloud_on_aws;shadow=1;strokeWidth=3;" parent="1" vertex="1">
          <mxGeometry x="669.25" y="1067" width="78.5" height="78.5" as="geometry" />
        </mxCell>
        <mxCell id="AEICJIpf-HnAvJKy8O_x-38" value="" style="endArrow=classic;startArrow=classic;html=1;rounded=0;fontSize=22;strokeWidth=3;strokeColor=#808080;" parent="1" edge="1">
          <mxGeometry width="50" height="50" relative="1" as="geometry">
            <mxPoint x="711" y="1149.02" as="sourcePoint" />
            <mxPoint x="713" y="1195" as="targetPoint" />
          </mxGeometry>
        </mxCell>
        <mxCell id="AEICJIpf-HnAvJKy8O_x-40" value="" style="endArrow=classic;startArrow=classic;html=1;rounded=0;fontSize=22;strokeWidth=3;strokeColor=#808080;" parent="1" edge="1">
          <mxGeometry width="50" height="50" relative="1" as="geometry">
            <mxPoint x="712" y="1275" as="sourcePoint" />
            <mxPoint x="714" y="1320.98" as="targetPoint" />
          </mxGeometry>
        </mxCell>
        <mxCell id="AEICJIpf-HnAvJKy8O_x-41" value="" style="verticalLabelPosition=bottom;html=1;verticalAlign=top;align=center;strokeColor=none;fillColor=#808080;shape=mxgraph.azure.azure_subscription;shadow=0;sketch=0;strokeWidth=3;fontSize=22;opacity=30;" parent="1" vertex="1">
          <mxGeometry x="661" y="1310" width="93" height="81" as="geometry" />
        </mxCell>
        <mxCell id="AEICJIpf-HnAvJKy8O_x-42" value="" style="verticalLabelPosition=bottom;html=1;verticalAlign=top;align=center;strokeColor=none;fillColor=#00BEF2;shape=mxgraph.azure.azure_subscription;shadow=0;sketch=0;strokeWidth=3;fontSize=22;opacity=30;" parent="1" vertex="1">
          <mxGeometry x="710" y="406" width="97" height="95" as="geometry" />
        </mxCell>
        <mxCell id="AEICJIpf-HnAvJKy8O_x-43" value="&lt;font color=&quot;#666666&quot; size=&quot;1&quot; style=&quot;&quot;&gt;&lt;b style=&quot;font-size: 19px;&quot;&gt;IPVPN&lt;/b&gt;&lt;/font&gt;" style="text;html=1;resizable=0;autosize=1;align=center;verticalAlign=middle;points=[];fillColor=none;strokeColor=none;rounded=0;shadow=1;sketch=0;strokeWidth=3;" parent="1" vertex="1">
          <mxGeometry x="370" y="1261" width="75" height="35" as="geometry" />
        </mxCell>
        <mxCell id="AEICJIpf-HnAvJKy8O_x-44" value="&lt;font color=&quot;#666666&quot; size=&quot;1&quot; style=&quot;&quot;&gt;&lt;b style=&quot;font-size: 19px;&quot;&gt;Internet&lt;/b&gt;&lt;/font&gt;" style="text;html=1;resizable=0;autosize=1;align=center;verticalAlign=middle;points=[];fillColor=none;strokeColor=none;rounded=0;shadow=1;sketch=0;strokeWidth=3;" parent="1" vertex="1">
          <mxGeometry x="754" y="1240" width="88" height="35" as="geometry" />
        </mxCell>
        <mxCell id="PGDXv05ij2jPZqyMUPNh-1" value="&lt;font style=&quot;font-size: 20px;&quot;&gt;&lt;b&gt;DC&lt;/b&gt;&lt;/font&gt;" style="text;html=1;resizable=0;autosize=1;align=center;verticalAlign=middle;points=[];fillColor=none;strokeColor=none;rounded=0;shadow=1;sketch=0;strokeWidth=3;fontColor=#4D4D4D;" parent="1" vertex="1">
          <mxGeometry x="490" y="1289" width="47" height="36" as="geometry" />
        </mxCell>
        <mxCell id="PGDXv05ij2jPZqyMUPNh-2" value="&lt;font size=&quot;1&quot;&gt;&lt;b&gt;&lt;font style=&quot;font-size: 19px;&quot; color=&quot;#4D4D4D&quot;&gt;Kantoor&lt;/font&gt;&lt;/b&gt;&lt;/font&gt;" style="text;html=1;resizable=0;autosize=1;align=center;verticalAlign=middle;points=[];fillColor=none;strokeColor=none;rounded=0;shadow=1;sketch=0;strokeWidth=3;fontColor=#4D4D4D;" parent="1" vertex="1">
          <mxGeometry x="246" y="1294" width="91" height="35" as="geometry" />
        </mxCell>
        <mxCell id="PGDXv05ij2jPZqyMUPNh-3" value="&lt;font size=&quot;1&quot; color=&quot;#4D4D4D&quot;&gt;&lt;b style=&quot;font-size: 19px;&quot;&gt;SaaS&lt;/b&gt;&lt;/font&gt;" style="text;html=1;resizable=0;autosize=1;align=center;verticalAlign=middle;points=[];fillColor=none;strokeColor=none;rounded=0;shadow=1;sketch=0;strokeWidth=3;fontColor=#4D4D4D;" parent="1" vertex="1">
          <mxGeometry x="677" y="1028" width="64" height="35" as="geometry" />
        </mxCell>
        <mxCell id="PGDXv05ij2jPZqyMUPNh-4" value="&lt;font style=&quot;font-size: 22px;&quot;&gt;&lt;b&gt;SDWAN fabric&lt;br&gt;&lt;/b&gt;&lt;/font&gt;" style="text;html=1;resizable=0;autosize=1;align=center;verticalAlign=middle;points=[];fillColor=none;strokeColor=none;rounded=0;shadow=1;sketch=0;strokeWidth=3;fontColor=#FFFFFF;" parent="1" vertex="1">
          <mxGeometry x="479" y="363" width="166" height="38" as="geometry" />
        </mxCell>
        <mxCell id="PGDXv05ij2jPZqyMUPNh-5" value="" style="verticalLabelPosition=bottom;html=1;verticalAlign=top;align=center;strokeColor=none;fillColor=#00FF00;shape=mxgraph.azure.service_endpoint;shadow=1;sketch=0;strokeWidth=3;rotation=-180;" parent="1" vertex="1">
          <mxGeometry x="407.4" y="430" width="60" height="20" as="geometry" />
        </mxCell>
        <mxCell id="PGDXv05ij2jPZqyMUPNh-6" value="" style="verticalLabelPosition=bottom;html=1;verticalAlign=top;align=center;strokeColor=none;fillColor=#00FF00;shape=mxgraph.azure.service_endpoint;shadow=1;sketch=0;strokeWidth=3;rotation=90;" parent="1" vertex="1">
          <mxGeometry x="551" y="571" width="60" height="20" as="geometry" />
        </mxCell>
        <mxCell id="PGDXv05ij2jPZqyMUPNh-7" value="" style="verticalLabelPosition=bottom;html=1;verticalAlign=top;align=center;strokeColor=none;fillColor=#00BEF2;shape=mxgraph.azure.service_endpoint;shadow=1;sketch=0;strokeWidth=3;rotation=-180;" parent="1" vertex="1">
          <mxGeometry x="162" y="691" width="60" height="20" as="geometry" />
        </mxCell>
        <mxCell id="PGDXv05ij2jPZqyMUPNh-8" value="" style="verticalLabelPosition=bottom;html=1;verticalAlign=top;align=center;strokeColor=none;fillColor=#00FF00;shape=mxgraph.azure.service_endpoint;shadow=1;sketch=0;strokeWidth=3;rotation=-180;" parent="1" vertex="1">
          <mxGeometry x="162" y="659" width="60" height="20" as="geometry" />
        </mxCell>
        <mxCell id="PGDXv05ij2jPZqyMUPNh-9" value="&lt;font size=&quot;1&quot;&gt;&lt;b style=&quot;font-size: 18px;&quot;&gt;IPVPN&lt;/b&gt;&lt;/font&gt;" style="text;html=1;resizable=0;autosize=1;align=center;verticalAlign=middle;points=[];fillColor=none;strokeColor=none;rounded=0;shadow=1;sketch=0;strokeWidth=3;" parent="1" vertex="1">
          <mxGeometry x="90" y="652" width="72" height="34" as="geometry" />
        </mxCell>
        <mxCell id="PGDXv05ij2jPZqyMUPNh-10" value="&lt;font size=&quot;1&quot;&gt;&lt;b style=&quot;font-size: 18px;&quot;&gt;Internet&lt;/b&gt;&lt;/font&gt;" style="text;html=1;resizable=0;autosize=1;align=center;verticalAlign=middle;points=[];fillColor=none;strokeColor=none;rounded=0;shadow=1;sketch=0;strokeWidth=3;" parent="1" vertex="1">
          <mxGeometry x="82" y="684" width="84" height="34" as="geometry" />
        </mxCell>
        <mxCell id="Gv2ncIB_xTtmmgyhVuqZ-1" value="" style="sketch=0;points=[[0.5,0,0],[1,0.5,0],[0.5,1,0],[0,0.5,0],[0.145,0.145,0],[0.8555,0.145,0],[0.855,0.8555,0],[0.145,0.855,0]];verticalLabelPosition=bottom;html=1;verticalAlign=top;aspect=fixed;align=center;pointerEvents=1;shape=mxgraph.cisco19.rect;prIcon=vmanage;fillColor=#FAFAFA;strokeColor=#005073;" parent="1" vertex="1">
          <mxGeometry x="594" y="1903" width="50" height="50" as="geometry" />
        </mxCell>
        <mxCell id="Gv2ncIB_xTtmmgyhVuqZ-2" value="" style="sketch=0;points=[[0.5,0,0],[1,0.5,0],[0.5,1,0],[0,0.5,0],[0.145,0.145,0],[0.8555,0.145,0],[0.855,0.8555,0],[0.145,0.855,0]];verticalLabelPosition=bottom;html=1;verticalAlign=top;aspect=fixed;align=center;pointerEvents=1;shape=mxgraph.cisco19.rect;prIcon=vsmart;fillColor=#FAFAFA;strokeColor=#005073;" parent="1" vertex="1">
          <mxGeometry x="595" y="2006" width="50" height="50" as="geometry" />
        </mxCell>
        <mxCell id="Gv2ncIB_xTtmmgyhVuqZ-3" value="" style="sketch=0;points=[[0.5,0,0],[1,0.5,0],[0.5,1,0],[0,0.5,0],[0.145,0.145,0],[0.8555,0.145,0],[0.855,0.8555,0],[0.145,0.855,0]];verticalLabelPosition=bottom;html=1;verticalAlign=top;aspect=fixed;align=center;pointerEvents=1;shape=mxgraph.cisco19.rect;prIcon=vbond;fillColor=#FAFAFA;strokeColor=#005073;" parent="1" vertex="1">
          <mxGeometry x="585" y="1807" width="50" height="50" as="geometry" />
        </mxCell>
        <mxCell id="Gv2ncIB_xTtmmgyhVuqZ-4" value="" style="sketch=0;points=[[0.5,0,0],[1,0.5,0],[0.5,1,0],[0,0.5,0],[0.145,0.145,0],[0.8555,0.145,0],[0.855,0.8555,0],[0.145,0.855,0]];verticalLabelPosition=bottom;html=1;verticalAlign=top;aspect=fixed;align=center;pointerEvents=1;shape=mxgraph.cisco19.rect;prIcon=router;fillColor=#FAFAFA;strokeColor=#005073;" parent="1" vertex="1">
          <mxGeometry x="430" y="2301" width="38" height="38" as="geometry" />
        </mxCell>
        <mxCell id="Gv2ncIB_xTtmmgyhVuqZ-5" value="" style="sketch=0;points=[[0.5,0,0],[1,0.5,0],[0.5,1,0],[0,0.5,0],[0.145,0.145,0],[0.8555,0.145,0],[0.855,0.8555,0],[0.145,0.855,0]];verticalLabelPosition=bottom;html=1;verticalAlign=top;aspect=fixed;align=center;pointerEvents=1;shape=mxgraph.cisco19.rect;prIcon=router;fillColor=#FAFAFA;strokeColor=#005073;" parent="1" vertex="1">
          <mxGeometry x="477" y="2299" width="39" height="39" as="geometry" />
        </mxCell>
        <mxCell id="Gv2ncIB_xTtmmgyhVuqZ-8" value="" style="sketch=0;points=[[0.5,0,0],[1,0.5,0],[0.5,1,0],[0,0.5,0],[0.145,0.145,0],[0.8555,0.145,0],[0.855,0.8555,0],[0.145,0.855,0]];verticalLabelPosition=bottom;html=1;verticalAlign=top;aspect=fixed;align=center;pointerEvents=1;shape=mxgraph.cisco19.rect;prIcon=router;fillColor=#FAFAFA;strokeColor=#005073;" parent="1" vertex="1">
          <mxGeometry x="747" y="2309" width="39" height="39" as="geometry" />
        </mxCell>
        <mxCell id="Gv2ncIB_xTtmmgyhVuqZ-9" value="" style="sketch=0;points=[[0.5,0,0],[1,0.5,0],[0.5,1,0],[0,0.5,0],[0.145,0.145,0],[0.8555,0.145,0],[0.855,0.8555,0],[0.145,0.855,0]];verticalLabelPosition=bottom;html=1;verticalAlign=top;aspect=fixed;align=center;pointerEvents=1;shape=mxgraph.cisco19.rect;prIcon=router;fillColor=#FAFAFA;strokeColor=#005073;" parent="1" vertex="1">
          <mxGeometry x="805" y="2309" width="39" height="39" as="geometry" />
        </mxCell>
        <mxCell id="Gv2ncIB_xTtmmgyhVuqZ-18" value="&lt;font style=&quot;font-size: 14px;&quot;&gt;&lt;b&gt;IPVPN&lt;/b&gt;&lt;/font&gt;" style="ellipse;shape=cloud;whiteSpace=wrap;html=1;shadow=1;" parent="1" vertex="1">
          <mxGeometry x="486" y="2137.5" width="120" height="80" as="geometry" />
        </mxCell>
        <mxCell id="Gv2ncIB_xTtmmgyhVuqZ-19" value="&lt;font size=&quot;1&quot;&gt;&lt;b style=&quot;font-size: 14px;&quot;&gt;Internet&lt;/b&gt;&lt;/font&gt;" style="ellipse;shape=cloud;whiteSpace=wrap;html=1;shadow=1;" parent="1" vertex="1">
          <mxGeometry x="621" y="2134" width="120" height="80" as="geometry" />
        </mxCell>
        <mxCell id="Gv2ncIB_xTtmmgyhVuqZ-20" value="&lt;font size=&quot;1&quot;&gt;&lt;b style=&quot;font-size: 17px;&quot;&gt;Orkestratie laag&lt;/b&gt;&lt;/font&gt;" style="text;html=1;resizable=0;autosize=1;align=center;verticalAlign=middle;points=[];fillColor=none;strokeColor=none;rounded=0;shadow=1;fontSize=14;" parent="1" vertex="1">
          <mxGeometry x="270" y="1800" width="146" height="32" as="geometry" />
        </mxCell>
        <mxCell id="Gv2ncIB_xTtmmgyhVuqZ-21" value="&lt;font size=&quot;1&quot;&gt;&lt;b style=&quot;font-size: 17px;&quot;&gt;Management laag&lt;/b&gt;&lt;/font&gt;" style="text;html=1;resizable=0;autosize=1;align=center;verticalAlign=middle;points=[];fillColor=none;strokeColor=none;rounded=0;shadow=1;fontSize=14;" parent="1" vertex="1">
          <mxGeometry x="271" y="1895" width="161" height="32" as="geometry" />
        </mxCell>
        <mxCell id="Gv2ncIB_xTtmmgyhVuqZ-22" value="&lt;font size=&quot;1&quot;&gt;&lt;b style=&quot;font-size: 17px;&quot;&gt;Besturing laag&lt;/b&gt;&lt;/font&gt;" style="text;html=1;resizable=0;autosize=1;align=center;verticalAlign=middle;points=[];fillColor=none;strokeColor=none;rounded=0;shadow=1;fontSize=14;" parent="1" vertex="1">
          <mxGeometry x="278" y="1997" width="136" height="32" as="geometry" />
        </mxCell>
        <mxCell id="Gv2ncIB_xTtmmgyhVuqZ-23" value="&lt;div&gt;&lt;font size=&quot;1&quot;&gt;&lt;b style=&quot;font-size: 17px;&quot;&gt;Underlay transport &lt;br&gt;&lt;/b&gt;&lt;/font&gt;&lt;/div&gt;&lt;div&gt;&lt;font size=&quot;1&quot;&gt;&lt;b style=&quot;font-size: 17px;&quot;&gt;netwerk&lt;/b&gt;&lt;/font&gt;&lt;/div&gt;" style="text;html=1;resizable=0;autosize=1;align=center;verticalAlign=middle;points=[];fillColor=none;strokeColor=none;rounded=0;shadow=1;fontSize=14;" parent="1" vertex="1">
          <mxGeometry x="180" y="2155" width="170" height="53" as="geometry" />
        </mxCell>
        <mxCell id="Gv2ncIB_xTtmmgyhVuqZ-24" value="&lt;font size=&quot;1&quot;&gt;&lt;b style=&quot;font-size: 17px;&quot;&gt;Data laag&lt;/b&gt;&lt;/font&gt;" style="text;html=1;resizable=0;autosize=1;align=center;verticalAlign=middle;points=[];fillColor=none;strokeColor=none;rounded=0;shadow=1;fontSize=14;" parent="1" vertex="1">
          <mxGeometry x="304" y="2304" width="94" height="32" as="geometry" />
        </mxCell>
        <mxCell id="Gv2ncIB_xTtmmgyhVuqZ-25" value="&lt;font size=&quot;1&quot;&gt;&lt;b style=&quot;font-size: 17px;&quot;&gt;Rekencentrum&lt;br&gt;&lt;/b&gt;&lt;/font&gt;" style="text;html=1;resizable=0;autosize=1;align=center;verticalAlign=middle;points=[];fillColor=none;strokeColor=none;rounded=0;shadow=1;fontSize=14;" parent="1" vertex="1">
          <mxGeometry x="384" y="2372" width="136" height="32" as="geometry" />
        </mxCell>
        <mxCell id="Gv2ncIB_xTtmmgyhVuqZ-26" value="&lt;font size=&quot;1&quot;&gt;&lt;b style=&quot;font-size: 17px;&quot;&gt;Kantoor&lt;br&gt;&lt;/b&gt;&lt;/font&gt;" style="text;html=1;resizable=0;autosize=1;align=center;verticalAlign=middle;points=[];fillColor=none;strokeColor=none;rounded=0;shadow=1;fontSize=14;" parent="1" vertex="1">
          <mxGeometry x="595" y="2452" width="83" height="32" as="geometry" />
        </mxCell>
        <mxCell id="Gv2ncIB_xTtmmgyhVuqZ-27" value="&lt;font size=&quot;1&quot;&gt;&lt;b style=&quot;font-size: 17px;&quot;&gt;Cloud (Azure)&lt;br&gt;&lt;/b&gt;&lt;/font&gt;" style="text;html=1;resizable=0;autosize=1;align=center;verticalAlign=middle;points=[];fillColor=none;strokeColor=none;rounded=0;shadow=1;fontSize=14;" parent="1" vertex="1">
          <mxGeometry x="741" y="2376" width="129" height="32" as="geometry" />
        </mxCell>
        <mxCell id="Gv2ncIB_xTtmmgyhVuqZ-28" value="&lt;font size=&quot;1&quot;&gt;&lt;b style=&quot;font-size: 17px;&quot;&gt;vSmart&lt;br&gt;&lt;/b&gt;&lt;/font&gt;" style="text;html=1;resizable=0;autosize=1;align=center;verticalAlign=middle;points=[];fillColor=none;strokeColor=none;rounded=0;shadow=1;fontSize=14;" parent="1" vertex="1">
          <mxGeometry x="645" y="2019" width="76" height="32" as="geometry" />
        </mxCell>
        <mxCell id="Gv2ncIB_xTtmmgyhVuqZ-29" value="&lt;font size=&quot;1&quot;&gt;&lt;b style=&quot;font-size: 17px;&quot;&gt;vManage&lt;/b&gt;&lt;/font&gt;" style="text;html=1;resizable=0;autosize=1;align=center;verticalAlign=middle;points=[];fillColor=none;strokeColor=none;rounded=0;shadow=1;fontSize=14;" parent="1" vertex="1">
          <mxGeometry x="639" y="1912" width="91" height="32" as="geometry" />
        </mxCell>
        <mxCell id="Gv2ncIB_xTtmmgyhVuqZ-30" value="&lt;font size=&quot;1&quot;&gt;&lt;b style=&quot;font-size: 17px;&quot;&gt;vBond&lt;/b&gt;&lt;/font&gt;" style="text;html=1;resizable=0;autosize=1;align=center;verticalAlign=middle;points=[];fillColor=none;strokeColor=none;rounded=0;shadow=1;fontSize=14;" parent="1" vertex="1">
          <mxGeometry x="644" y="1816" width="71" height="32" as="geometry" />
        </mxCell>
        <mxCell id="Gv2ncIB_xTtmmgyhVuqZ-31" value="" style="endArrow=classic;dashed=1;html=1;dashPattern=1 3;strokeWidth=2;rounded=0;fontSize=17;entryX=-0.04;entryY=0.9;entryDx=0;entryDy=0;entryPerimeter=0;startArrow=classic;startFill=1;endFill=1;" parent="1" target="Gv2ncIB_xTtmmgyhVuqZ-2" edge="1">
          <mxGeometry width="50" height="50" relative="1" as="geometry">
            <mxPoint x="471" y="2286" as="sourcePoint" />
            <mxPoint x="574" y="2055" as="targetPoint" />
          </mxGeometry>
        </mxCell>
        <mxCell id="Gv2ncIB_xTtmmgyhVuqZ-32" value="" style="endArrow=classic;dashed=1;html=1;dashPattern=1 3;strokeWidth=2;rounded=0;fontSize=17;entryX=0.5;entryY=1;entryDx=0;entryDy=0;entryPerimeter=0;exitX=0.408;exitY=0.013;exitDx=0;exitDy=0;exitPerimeter=0;startArrow=classic;startFill=1;endFill=1;" parent="1" source="Gv2ncIB_xTtmmgyhVuqZ-11" target="Gv2ncIB_xTtmmgyhVuqZ-2" edge="1">
          <mxGeometry width="50" height="50" relative="1" as="geometry">
            <mxPoint x="481" y="2296" as="sourcePoint" />
            <mxPoint x="603" y="2061" as="targetPoint" />
          </mxGeometry>
        </mxCell>
        <mxCell id="Gv2ncIB_xTtmmgyhVuqZ-33" value="" style="endArrow=classic;dashed=1;html=1;dashPattern=1 3;strokeWidth=2;rounded=0;fontSize=17;entryX=0.855;entryY=0.8555;entryDx=0;entryDy=0;entryPerimeter=0;exitX=0.342;exitY=0.025;exitDx=0;exitDy=0;exitPerimeter=0;startArrow=classic;startFill=1;endFill=1;" parent="1" source="Gv2ncIB_xTtmmgyhVuqZ-12" target="Gv2ncIB_xTtmmgyhVuqZ-2" edge="1">
          <mxGeometry width="50" height="50" relative="1" as="geometry">
            <mxPoint x="629.96" y="2303.04" as="sourcePoint" />
            <mxPoint x="630" y="2066" as="targetPoint" />
          </mxGeometry>
        </mxCell>
        <mxCell id="Gv2ncIB_xTtmmgyhVuqZ-35" value="&lt;div&gt;DTLS control overlay&lt;br&gt;&lt;/div&gt;" style="text;html=1;resizable=0;autosize=1;align=center;verticalAlign=middle;points=[];fillColor=none;strokeColor=none;rounded=0;shadow=1;fontSize=14;" parent="1" vertex="1">
          <mxGeometry x="718" y="2242" width="149" height="29" as="geometry" />
        </mxCell>
        <mxCell id="Gv2ncIB_xTtmmgyhVuqZ-38" value="" style="group" parent="1" vertex="1" connectable="0">
          <mxGeometry x="571" y="2367" width="120" height="80" as="geometry" />
        </mxCell>
        <mxCell id="Gv2ncIB_xTtmmgyhVuqZ-11" value="" style="ellipse;whiteSpace=wrap;html=1;fillColor=#d5e8d4;strokeColor=#82b366;shadow=1;" parent="Gv2ncIB_xTtmmgyhVuqZ-38" vertex="1">
          <mxGeometry width="120" height="80" as="geometry" />
        </mxCell>
        <mxCell id="Gv2ncIB_xTtmmgyhVuqZ-6" value="" style="sketch=0;points=[[0.5,0,0],[1,0.5,0],[0.5,1,0],[0,0.5,0],[0.145,0.145,0],[0.8555,0.145,0],[0.855,0.8555,0],[0.145,0.855,0]];verticalLabelPosition=bottom;html=1;verticalAlign=top;aspect=fixed;align=center;pointerEvents=1;shape=mxgraph.cisco19.rect;prIcon=router;fillColor=#FAFAFA;strokeColor=#005073;" parent="Gv2ncIB_xTtmmgyhVuqZ-38" vertex="1">
          <mxGeometry x="17" y="12" width="38" height="38" as="geometry" />
        </mxCell>
        <mxCell id="Gv2ncIB_xTtmmgyhVuqZ-7" value="" style="sketch=0;points=[[0.5,0,0],[1,0.5,0],[0.5,1,0],[0,0.5,0],[0.145,0.145,0],[0.8555,0.145,0],[0.855,0.8555,0],[0.145,0.855,0]];verticalLabelPosition=bottom;html=1;verticalAlign=top;aspect=fixed;align=center;pointerEvents=1;shape=mxgraph.cisco19.rect;prIcon=router;fillColor=#FAFAFA;strokeColor=#005073;" parent="Gv2ncIB_xTtmmgyhVuqZ-38" vertex="1">
          <mxGeometry x="72" y="12" width="41" height="41" as="geometry" />
        </mxCell>
        <mxCell id="Gv2ncIB_xTtmmgyhVuqZ-40" value="" style="shape=link;html=1;rounded=0;fontSize=17;startArrow=classic;startFill=1;endArrow=classic;endFill=1;width=-4;entryX=0;entryY=0.375;entryDx=0;entryDy=0;exitX=0.992;exitY=0.388;exitDx=0;exitDy=0;exitPerimeter=0;entryPerimeter=0;" parent="1" source="Gv2ncIB_xTtmmgyhVuqZ-10" target="Gv2ncIB_xTtmmgyhVuqZ-12" edge="1">
          <mxGeometry width="100" relative="1" as="geometry">
            <mxPoint x="528.75" y="2306.775" as="sourcePoint" />
            <mxPoint x="581" y="2370" as="targetPoint" />
          </mxGeometry>
        </mxCell>
        <mxCell id="Gv2ncIB_xTtmmgyhVuqZ-41" value="IPsec data overlay" style="text;html=1;resizable=0;autosize=1;align=center;verticalAlign=middle;points=[];fillColor=none;strokeColor=none;rounded=0;shadow=1;fontSize=14;" parent="1" vertex="1">
          <mxGeometry x="545" y="2297" width="133" height="29" as="geometry" />
        </mxCell>
        <mxCell id="Gv2ncIB_xTtmmgyhVuqZ-43" value="" style="editableCssRules=.*;shape=image;verticalLabelPosition=bottom;labelBackgroundColor=#ffffff;verticalAlign=top;aspect=fixed;imageAspect=0;image=data:image/svg+xml,PHN2ZyB4bWxucz0iaHR0cDovL3d3dy53My5vcmcvMjAwMC9zdmciIHhtbG5zOnY9Imh0dHBzOi8vdmVjdGEuaW8vbmFubyIgd2lkdGg9IjIwIiBoZWlnaHQ9IjIwIiB2aWV3Qm94PSIwIDAgMjAgMjAiPiYjeGE7CTxzdHlsZSB0eXBlPSJ0ZXh0L2NzcyI+JiN4YTsJLnN0MHtmaWxsOiM0Mjg1ZjQ7fSYjeGE7CTwvc3R5bGU+JiN4YTsJPHBhdGggY2xhc3M9InN0MCIgZD0iTTE3IDEydjNsLTUtNSA1LTV2M2gzdjR6TTMgOEgwdjRoM3YzbDUtNS01LTV6bTkgN3YtM0g4djNINWw1IDUgNS01em0wLTEwdjNIOFY1SDVsNS01IDUgNXoiLz4mI3hhOzwvc3ZnPg==;shadow=1;fontSize=17;" parent="1" vertex="1">
          <mxGeometry x="456" y="2015" width="36" height="36" as="geometry" />
        </mxCell>
        <mxCell id="Gv2ncIB_xTtmmgyhVuqZ-45" value="" style="sketch=0;html=1;aspect=fixed;strokeColor=none;shadow=0;align=center;verticalAlign=top;fillColor=#3B8DF1;shape=mxgraph.gcp2.cloud_monitoring;fontSize=17;" parent="1" vertex="1">
          <mxGeometry x="479" y="1938" width="28" height="31.11" as="geometry" />
        </mxCell>
        <mxCell id="Gv2ncIB_xTtmmgyhVuqZ-47" value="" style="sketch=0;html=1;verticalAlign=top;labelPosition=center;verticalLabelPosition=bottom;align=center;spacingTop=-6;fontSize=11;fontStyle=1;fontColor=#999999;shape=image;aspect=fixed;imageAspect=0;image=data:image/svg+xml,PHN2ZyB4bWxucz0iaHR0cDovL3d3dy53My5vcmcvMjAwMC9zdmciIHhtbG5zOnY9Imh0dHBzOi8vdmVjdGEuaW8vbmFubyIgd2lkdGg9IjIwIiBoZWlnaHQ9IjEzLjUyOTk5OTczMjk3MTE5MSIgdmlld0JveD0iLTIuOTMyMDk3ODk3ODEyMDE0ZS05IC01LjI1ODAxNTA0MTgzNzk1NmUtMTUgMjAgMTMuNTI5OTk5NzMyOTcxMTkxIj4mI3hhOwk8c3R5bGUgdHlwZT0idGV4dC9jc3MiPiYjeGE7CS5zdDB7ZmlsbDojNDI4NWY0O30mI3hhOwkuc3Qxe2ZpbGw6IzY2OWRmNjt9JiN4YTsJPC9zdHlsZT4mI3hhOwk8cGF0aCBjbGFzcz0ic3QxIiBkPSJNOC44MyAxMC41OGgyLjMzdjIuNjRIOC44M3oiLz4mI3hhOwk8cGF0aCBjbGFzcz0ic3QwIiBkPSJNMTYuNDggOC42MWEuNTYuNTYgMCAwIDEtLjQtLjE3TDEyIDQuMjEgOS4yNiA3LjFhLjU3LjU3IDAgMCAxLS43Ni4wNUw2LjQyIDUuNDdsLTIuMiAyLjkyYS41Ni41NiAwIDAgMS0uNDUuMjJIMHYxLjcxYS43NS43NSAwIDAgMCAuNzQuNzVoMTguNTJhLjc1Ljc1IDAgMCAwIC43NC0uNzVWOC42MXoiLz4mI3hhOwk8cGF0aCBjbGFzcz0ic3QxIiBkPSJNMy41IDcuNWwyLjM4LTMuMTZhLjU1LjU1IDAgMCAxIC4zNy0uMjIuNjMuNjMgMCAwIDEgLjQyLjEybDIuMTIgMS43MiAyLjgtMi45NGEuNTQuNTQgMCAwIDEgLjQtLjE3aDBhLjU0LjU0IDAgMCAxIC40LjE3bDQuMzMgNC40OEgyMFYuNzRhLjc0Ljc0IDAgMCAwLS43NC0uNzRILjc0QS43NC43NCAwIDAgMCAwIC43NHY2LjgxeiIvPiYjeGE7CTxyZWN0IGNsYXNzPSJzdDAiIHg9IjYuNjciIHk9IjEyLjkyIiB3aWR0aD0iNi42NyIgaGVpZ2h0PSIuNjEiIHJ4PSIuMyIvPiYjeGE7PC9zdmc+;shadow=1;" parent="1" vertex="1">
          <mxGeometry x="450" y="1906" width="42" height="29" as="geometry" />
        </mxCell>
        <mxCell id="Gv2ncIB_xTtmmgyhVuqZ-49" value="" style="aspect=fixed;html=1;points=[];align=center;image;fontSize=12;image=img/lib/azure2/management_governance/Automation_Accounts.svg;shadow=1;" parent="1" vertex="1">
          <mxGeometry x="506" y="1905" width="31" height="31" as="geometry" />
        </mxCell>
        <mxCell id="Gv2ncIB_xTtmmgyhVuqZ-51" value="" style="sketch=0;points=[[0,0,0],[0.25,0,0],[0.5,0,0],[0.75,0,0],[1,0,0],[0,1,0],[0.25,1,0],[0.5,1,0],[0.75,1,0],[1,1,0],[0,0.25,0],[0,0.5,0],[0,0.75,0],[1,0.25,0],[1,0.5,0],[1,0.75,0]];points=[[0,0,0],[0.25,0,0],[0.5,0,0],[0.75,0,0],[1,0,0],[0,1,0],[0.25,1,0],[0.5,1,0],[0.75,1,0],[1,1,0],[0,0.25,0],[0,0.5,0],[0,0.75,0],[1,0.25,0],[1,0.5,0],[1,0.75,0]];outlineConnect=0;fontColor=#232F3E;gradientColor=#F34482;gradientDirection=north;fillColor=#BC1356;strokeColor=#ffffff;dashed=0;verticalLabelPosition=bottom;verticalAlign=top;align=center;html=1;fontSize=12;fontStyle=0;aspect=fixed;shape=mxgraph.aws4.resourceIcon;resIcon=mxgraph.aws4.organizations;shadow=1;" parent="1" vertex="1">
          <mxGeometry x="445" y="1810" width="38" height="38" as="geometry" />
        </mxCell>
        <mxCell id="Gv2ncIB_xTtmmgyhVuqZ-55" value="" style="shape=curlyBracket;whiteSpace=wrap;html=1;rounded=1;flipH=1;shadow=1;fontSize=17;strokeWidth=1;" parent="1" vertex="1">
          <mxGeometry x="844" y="1800" width="20" height="280" as="geometry" />
        </mxCell>
        <mxCell id="Gv2ncIB_xTtmmgyhVuqZ-56" value="" style="shape=curlyBracket;whiteSpace=wrap;html=1;rounded=1;flipH=1;shadow=1;fontSize=17;strokeWidth=1;" parent="1" vertex="1">
          <mxGeometry x="864" y="2141" width="20" height="73" as="geometry" />
        </mxCell>
        <mxCell id="Gv2ncIB_xTtmmgyhVuqZ-57" value="" style="shape=curlyBracket;whiteSpace=wrap;html=1;rounded=1;flipH=1;shadow=1;fontSize=17;strokeWidth=1;" parent="1" vertex="1">
          <mxGeometry x="873" y="2307" width="20" height="147" as="geometry" />
        </mxCell>
        <mxCell id="Gv2ncIB_xTtmmgyhVuqZ-58" value="&lt;b&gt;Rekencentrum&lt;/b&gt;" style="text;html=1;resizable=0;autosize=1;align=center;verticalAlign=middle;points=[];fillColor=none;strokeColor=none;rounded=0;shadow=1;fontSize=14;" parent="1" vertex="1">
          <mxGeometry x="867" y="1925.5" width="115" height="29" as="geometry" />
        </mxCell>
        <mxCell id="Gv2ncIB_xTtmmgyhVuqZ-59" value="&lt;b&gt;WAN SP&lt;br&gt;&lt;/b&gt;" style="text;html=1;resizable=0;autosize=1;align=center;verticalAlign=middle;points=[];fillColor=none;strokeColor=none;rounded=0;shadow=1;fontSize=14;" parent="1" vertex="1">
          <mxGeometry x="884" y="2163.5" width="73" height="29" as="geometry" />
        </mxCell>
        <mxCell id="Gv2ncIB_xTtmmgyhVuqZ-60" value="&lt;div&gt;&lt;b&gt;Kantoor / Rekencentrum&lt;/b&gt;&lt;/div&gt;&lt;div&gt;&lt;b&gt;Locaties&lt;/b&gt;&lt;/div&gt;" style="text;html=1;resizable=0;autosize=1;align=center;verticalAlign=middle;points=[];fillColor=none;strokeColor=none;rounded=0;shadow=1;fontSize=14;" parent="1" vertex="1">
          <mxGeometry x="893" y="2367" width="181" height="46" as="geometry" />
        </mxCell>
        <mxCell id="Gv2ncIB_xTtmmgyhVuqZ-61" value="&lt;b&gt;Edge routers&lt;/b&gt;" style="text;html=1;resizable=0;autosize=1;align=center;verticalAlign=middle;points=[];fillColor=none;strokeColor=none;rounded=0;shadow=1;fontSize=14;" parent="1" vertex="1">
          <mxGeometry x="422" y="2332" width="104" height="29" as="geometry" />
        </mxCell>
        <mxCell id="_VPIxrVI58AnDgxVty4J-7" value="" style="sketch=0;points=[[0.5,0,0],[1,0.5,0],[0.5,1,0],[0,0.5,0],[0.145,0.145,0],[0.8555,0.145,0],[0.855,0.8555,0],[0.145,0.855,0]];verticalLabelPosition=bottom;html=1;verticalAlign=top;aspect=fixed;align=center;pointerEvents=1;shape=mxgraph.cisco19.rect;prIcon=router;fillColor=#FAFAFA;strokeColor=#005073;" vertex="1" parent="1">
          <mxGeometry x="556.5" y="2905" width="38" height="38" as="geometry" />
        </mxCell>
        <mxCell id="_VPIxrVI58AnDgxVty4J-8" value="" style="sketch=0;points=[[0.5,0,0],[1,0.5,0],[0.5,1,0],[0,0.5,0],[0.145,0.145,0],[0.8555,0.145,0],[0.855,0.8555,0],[0.145,0.855,0]];verticalLabelPosition=bottom;html=1;verticalAlign=top;aspect=fixed;align=center;pointerEvents=1;shape=mxgraph.cisco19.rect;prIcon=router;fillColor=#FAFAFA;strokeColor=#005073;" vertex="1" parent="1">
          <mxGeometry x="618.5" y="2905" width="39" height="39" as="geometry" />
        </mxCell>
        <mxCell id="_VPIxrVI58AnDgxVty4J-27" value="" style="group;fillColor=default;fillStyle=zigzag-line;" vertex="1" connectable="0" parent="1">
          <mxGeometry x="205" y="2680" width="218" height="191.5" as="geometry" />
        </mxCell>
        <mxCell id="_VPIxrVI58AnDgxVty4J-22" value="" style="rounded=1;whiteSpace=wrap;html=1;strokeColor=#0000CC;strokeWidth=1;shadow=1;sketch=0;glass=0;" vertex="1" parent="_VPIxrVI58AnDgxVty4J-27">
          <mxGeometry width="120" height="189" as="geometry" />
        </mxCell>
        <mxCell id="_VPIxrVI58AnDgxVty4J-4" value="" style="sketch=0;points=[[0.5,0,0],[1,0.5,0],[0.5,1,0],[0,0.5,0],[0.145,0.145,0],[0.8555,0.145,0],[0.855,0.8555,0],[0.145,0.855,0]];verticalLabelPosition=bottom;html=1;verticalAlign=top;aspect=fixed;align=center;pointerEvents=1;shape=mxgraph.cisco19.rect;prIcon=vbond;fillColor=#FAFAFA;strokeColor=#005073;" vertex="1" parent="_VPIxrVI58AnDgxVty4J-27">
          <mxGeometry x="20" y="10.5" width="50" height="50" as="geometry" />
        </mxCell>
        <mxCell id="_VPIxrVI58AnDgxVty4J-5" value="" style="sketch=0;points=[[0.5,0,0],[1,0.5,0],[0.5,1,0],[0,0.5,0],[0.145,0.145,0],[0.8555,0.145,0],[0.855,0.8555,0],[0.145,0.855,0]];verticalLabelPosition=bottom;html=1;verticalAlign=top;aspect=fixed;align=center;pointerEvents=1;shape=mxgraph.cisco19.rect;prIcon=vmanage;fillColor=#FAFAFA;strokeColor=#005073;" vertex="1" parent="_VPIxrVI58AnDgxVty4J-27">
          <mxGeometry x="22" y="69.5" width="50" height="50" as="geometry" />
        </mxCell>
        <mxCell id="_VPIxrVI58AnDgxVty4J-6" value="" style="sketch=0;points=[[0.5,0,0],[1,0.5,0],[0.5,1,0],[0,0.5,0],[0.145,0.145,0],[0.8555,0.145,0],[0.855,0.8555,0],[0.145,0.855,0]];verticalLabelPosition=bottom;html=1;verticalAlign=top;aspect=fixed;align=center;pointerEvents=1;shape=mxgraph.cisco19.rect;prIcon=vsmart;fillColor=#FAFAFA;strokeColor=#005073;" vertex="1" parent="_VPIxrVI58AnDgxVty4J-27">
          <mxGeometry x="22" y="131.5" width="50" height="50" as="geometry" />
        </mxCell>
        <mxCell id="_VPIxrVI58AnDgxVty4J-13" value="" style="ellipse;whiteSpace=wrap;html=1;fillColor=#d5e8d4;strokeColor=#0000CC;strokeWidth=3;" vertex="1" parent="_VPIxrVI58AnDgxVty4J-27">
          <mxGeometry x="3" y="25.5" width="19" height="17" as="geometry" />
        </mxCell>
        <mxCell id="_VPIxrVI58AnDgxVty4J-17" value="" style="ellipse;whiteSpace=wrap;html=1;fillColor=#d5e8d4;strokeColor=#0000CC;strokeWidth=3;" vertex="1" parent="_VPIxrVI58AnDgxVty4J-27">
          <mxGeometry x="3" y="86" width="19" height="17" as="geometry" />
        </mxCell>
        <mxCell id="_VPIxrVI58AnDgxVty4J-18" value="" style="ellipse;whiteSpace=wrap;html=1;fillColor=#d5e8d4;strokeColor=#0000CC;strokeWidth=3;" vertex="1" parent="_VPIxrVI58AnDgxVty4J-27">
          <mxGeometry x="3" y="151" width="19" height="17" as="geometry" />
        </mxCell>
        <mxCell id="_VPIxrVI58AnDgxVty4J-56" value="&lt;font style=&quot;font-size: 12px;&quot;&gt;&lt;b style=&quot;font-size: 12px;&quot;&gt;Active&lt;/b&gt;&lt;/font&gt;" style="text;html=1;resizable=0;autosize=1;align=center;verticalAlign=middle;points=[];fillColor=none;strokeColor=none;rounded=0;shadow=1;glass=0;dashed=1;sketch=0;strokeWidth=1;fontSize=12;" vertex="1" parent="_VPIxrVI58AnDgxVty4J-27">
          <mxGeometry x="67" y="22.5" width="53" height="26" as="geometry" />
        </mxCell>
        <mxCell id="_VPIxrVI58AnDgxVty4J-57" value="&lt;font style=&quot;font-size: 12px;&quot;&gt;&lt;b style=&quot;font-size: 12px;&quot;&gt;Active&lt;/b&gt;&lt;/font&gt;" style="text;html=1;resizable=0;autosize=1;align=center;verticalAlign=middle;points=[];fillColor=none;strokeColor=none;rounded=0;shadow=1;glass=0;dashed=1;sketch=0;strokeWidth=1;fontSize=12;" vertex="1" parent="_VPIxrVI58AnDgxVty4J-27">
          <mxGeometry x="65" y="81.5" width="53" height="26" as="geometry" />
        </mxCell>
        <mxCell id="_VPIxrVI58AnDgxVty4J-58" value="&lt;font style=&quot;font-size: 12px;&quot;&gt;&lt;b style=&quot;font-size: 12px;&quot;&gt;Active&lt;/b&gt;&lt;/font&gt;" style="text;html=1;resizable=0;autosize=1;align=center;verticalAlign=middle;points=[];fillColor=none;strokeColor=none;rounded=0;shadow=1;glass=0;dashed=1;sketch=0;strokeWidth=1;fontSize=12;" vertex="1" parent="_VPIxrVI58AnDgxVty4J-27">
          <mxGeometry x="65" y="149" width="53" height="26" as="geometry" />
        </mxCell>
        <mxCell id="_VPIxrVI58AnDgxVty4J-68" value="" style="rounded=1;whiteSpace=wrap;html=1;shadow=1;glass=0;dashed=1;sketch=0;strokeColor=#9673a6;strokeWidth=1;fontSize=12;fillColor=#e1d5e7;gradientColor=none;fillStyle=auto;opacity=30;" vertex="1" parent="_VPIxrVI58AnDgxVty4J-27">
          <mxGeometry x="-2" y="131.5" width="155" height="60" as="geometry" />
        </mxCell>
        <mxCell id="_VPIxrVI58AnDgxVty4J-82" value="&lt;font size=&quot;1&quot;&gt;&lt;b style=&quot;font-size: 9px;&quot;&gt;GroupID-01&lt;/b&gt;&lt;/font&gt;" style="text;html=1;resizable=0;autosize=1;align=center;verticalAlign=middle;points=[];fillColor=none;strokeColor=none;rounded=0;shadow=1;glass=0;dashed=1;sketch=0;fillStyle=auto;strokeWidth=1;fontSize=12;opacity=30;" vertex="1" parent="_VPIxrVI58AnDgxVty4J-27">
          <mxGeometry x="115" y="163" width="66" height="26" as="geometry" />
        </mxCell>
        <mxCell id="_VPIxrVI58AnDgxVty4J-106" value="Internet Firewall" style="text;html=1;resizable=0;autosize=1;align=center;verticalAlign=middle;points=[];fillColor=none;strokeColor=none;rounded=0;shadow=1;glass=0;dashed=1;sketch=0;fillStyle=auto;strokeWidth=1;fontSize=12;opacity=30;rotation=0;" vertex="1" parent="_VPIxrVI58AnDgxVty4J-27">
          <mxGeometry x="118" y="-0.5" width="100" height="26" as="geometry" />
        </mxCell>
        <mxCell id="_VPIxrVI58AnDgxVty4J-36" value="" style="image;html=1;image=img/lib/clip_art/networking/Firewall_02_128x128.png;shadow=1;glass=0;dashed=1;sketch=0;strokeColor=#B81244;strokeWidth=1;" vertex="1" parent="1">
          <mxGeometry x="329" y="2707.5" width="80" height="80" as="geometry" />
        </mxCell>
        <mxCell id="_VPIxrVI58AnDgxVty4J-37" value="" style="ellipse;whiteSpace=wrap;html=1;fillColor=#f8cecc;strokeColor=#FF0080;strokeWidth=3;" vertex="1" parent="1">
          <mxGeometry x="400" y="2741" width="19" height="17" as="geometry" />
        </mxCell>
        <mxCell id="_VPIxrVI58AnDgxVty4J-38" value="" style="ellipse;whiteSpace=wrap;html=1;fillColor=#f8cecc;strokeColor=#FF0080;strokeWidth=3;" vertex="1" parent="1">
          <mxGeometry x="400" y="2766" width="19" height="17" as="geometry" />
        </mxCell>
        <mxCell id="_VPIxrVI58AnDgxVty4J-39" value="" style="group" vertex="1" connectable="0" parent="1">
          <mxGeometry x="884" y="2680" width="120" height="191" as="geometry" />
        </mxCell>
        <mxCell id="_VPIxrVI58AnDgxVty4J-23" value="" style="rounded=1;whiteSpace=wrap;html=1;strokeColor=#0000CC;strokeWidth=1;shadow=1;sketch=0;glass=0;" vertex="1" parent="_VPIxrVI58AnDgxVty4J-39">
          <mxGeometry width="120" height="189" as="geometry" />
        </mxCell>
        <mxCell id="_VPIxrVI58AnDgxVty4J-1" value="" style="sketch=0;points=[[0.5,0,0],[1,0.5,0],[0.5,1,0],[0,0.5,0],[0.145,0.145,0],[0.8555,0.145,0],[0.855,0.8555,0],[0.145,0.855,0]];verticalLabelPosition=bottom;html=1;verticalAlign=top;aspect=fixed;align=center;pointerEvents=1;shape=mxgraph.cisco19.rect;prIcon=vmanage;fillColor=#FAFAFA;strokeColor=#005073;" vertex="1" parent="_VPIxrVI58AnDgxVty4J-39">
          <mxGeometry x="49" y="69.5" width="50" height="50" as="geometry" />
        </mxCell>
        <mxCell id="_VPIxrVI58AnDgxVty4J-2" value="" style="sketch=0;points=[[0.5,0,0],[1,0.5,0],[0.5,1,0],[0,0.5,0],[0.145,0.145,0],[0.8555,0.145,0],[0.855,0.8555,0],[0.145,0.855,0]];verticalLabelPosition=bottom;html=1;verticalAlign=top;aspect=fixed;align=center;pointerEvents=1;shape=mxgraph.cisco19.rect;prIcon=vsmart;fillColor=#FAFAFA;strokeColor=#005073;" vertex="1" parent="_VPIxrVI58AnDgxVty4J-39">
          <mxGeometry x="49" y="131.5" width="50" height="50" as="geometry" />
        </mxCell>
        <mxCell id="_VPIxrVI58AnDgxVty4J-3" value="" style="sketch=0;points=[[0.5,0,0],[1,0.5,0],[0.5,1,0],[0,0.5,0],[0.145,0.145,0],[0.8555,0.145,0],[0.855,0.8555,0],[0.145,0.855,0]];verticalLabelPosition=bottom;html=1;verticalAlign=top;aspect=fixed;align=center;pointerEvents=1;shape=mxgraph.cisco19.rect;prIcon=vbond;fillColor=#FAFAFA;strokeColor=#005073;" vertex="1" parent="_VPIxrVI58AnDgxVty4J-39">
          <mxGeometry x="49" y="10.5" width="50" height="50" as="geometry" />
        </mxCell>
        <mxCell id="_VPIxrVI58AnDgxVty4J-19" value="" style="ellipse;whiteSpace=wrap;html=1;fillColor=#d5e8d4;strokeColor=#0000CC;strokeWidth=3;" vertex="1" parent="_VPIxrVI58AnDgxVty4J-39">
          <mxGeometry x="97" y="27" width="19" height="17" as="geometry" />
        </mxCell>
        <mxCell id="_VPIxrVI58AnDgxVty4J-20" value="" style="ellipse;whiteSpace=wrap;html=1;fillColor=#d5e8d4;strokeColor=#0000CC;strokeWidth=3;" vertex="1" parent="_VPIxrVI58AnDgxVty4J-39">
          <mxGeometry x="97" y="87.5" width="19" height="17" as="geometry" />
        </mxCell>
        <mxCell id="_VPIxrVI58AnDgxVty4J-21" value="" style="ellipse;whiteSpace=wrap;html=1;fillColor=#d5e8d4;strokeColor=#0000CC;strokeWidth=3;" vertex="1" parent="_VPIxrVI58AnDgxVty4J-39">
          <mxGeometry x="97" y="152.5" width="19" height="17" as="geometry" />
        </mxCell>
        <mxCell id="_VPIxrVI58AnDgxVty4J-59" value="&lt;font style=&quot;font-size: 12px;&quot;&gt;&lt;b style=&quot;font-size: 12px;&quot;&gt;Active&lt;/b&gt;&lt;/font&gt;" style="text;html=1;resizable=0;autosize=1;align=center;verticalAlign=middle;points=[];fillColor=none;strokeColor=none;rounded=0;shadow=1;glass=0;dashed=1;sketch=0;strokeWidth=1;fontSize=12;" vertex="1" parent="_VPIxrVI58AnDgxVty4J-39">
          <mxGeometry y="20" width="53" height="26" as="geometry" />
        </mxCell>
        <mxCell id="_VPIxrVI58AnDgxVty4J-60" value="&lt;font style=&quot;font-size: 12px;&quot;&gt;&lt;b style=&quot;font-size: 12px;&quot;&gt;Active&lt;/b&gt;&lt;/font&gt;" style="text;html=1;resizable=0;autosize=1;align=center;verticalAlign=middle;points=[];fillColor=none;strokeColor=none;rounded=0;shadow=1;glass=0;dashed=1;sketch=0;strokeWidth=1;fontSize=12;" vertex="1" parent="_VPIxrVI58AnDgxVty4J-39">
          <mxGeometry y="148" width="53" height="26" as="geometry" />
        </mxCell>
        <mxCell id="_VPIxrVI58AnDgxVty4J-55" value="&lt;div&gt;&lt;font style=&quot;font-size: 12px;&quot;&gt;&lt;b style=&quot;font-size: 12px;&quot;&gt;Cold&lt;/b&gt;&lt;/font&gt;&lt;/div&gt;&lt;div&gt;&lt;font style=&quot;font-size: 12px;&quot;&gt;&lt;b style=&quot;font-size: 12px;&quot;&gt;Standby&lt;/b&gt;&lt;/font&gt;&lt;/div&gt;" style="text;html=1;resizable=0;autosize=1;align=center;verticalAlign=middle;points=[];fillColor=none;strokeColor=none;rounded=0;shadow=1;glass=0;dashed=1;sketch=0;strokeWidth=1;fontSize=12;" vertex="1" parent="_VPIxrVI58AnDgxVty4J-39">
          <mxGeometry x="-7" y="76" width="64" height="41" as="geometry" />
        </mxCell>
        <mxCell id="_VPIxrVI58AnDgxVty4J-81" value="" style="rounded=1;whiteSpace=wrap;html=1;shadow=1;glass=0;dashed=1;sketch=0;strokeColor=#9673a6;strokeWidth=1;fontSize=12;fillColor=#e1d5e7;gradientColor=none;fillStyle=auto;opacity=30;" vertex="1" parent="_VPIxrVI58AnDgxVty4J-39">
          <mxGeometry x="-35" y="131" width="155" height="60" as="geometry" />
        </mxCell>
        <mxCell id="_VPIxrVI58AnDgxVty4J-83" value="&lt;font size=&quot;1&quot;&gt;&lt;b style=&quot;font-size: 9px;&quot;&gt;GroupID-02&lt;/b&gt;&lt;/font&gt;" style="text;html=1;resizable=0;autosize=1;align=center;verticalAlign=middle;points=[];fillColor=none;strokeColor=none;rounded=0;shadow=1;glass=0;dashed=1;sketch=0;fillStyle=auto;strokeWidth=1;fontSize=12;opacity=30;" vertex="1" parent="_VPIxrVI58AnDgxVty4J-39">
          <mxGeometry x="-62" y="163" width="66" height="26" as="geometry" />
        </mxCell>
        <mxCell id="_VPIxrVI58AnDgxVty4J-40" value="" style="image;html=1;image=img/lib/clip_art/networking/Firewall_02_128x128.png;shadow=1;glass=0;dashed=1;sketch=0;strokeColor=#B81244;strokeWidth=1;" vertex="1" parent="1">
          <mxGeometry x="804" y="2724" width="80" height="80" as="geometry" />
        </mxCell>
        <mxCell id="_VPIxrVI58AnDgxVty4J-41" value="" style="ellipse;whiteSpace=wrap;html=1;fillColor=#f8cecc;strokeColor=#FF0080;strokeWidth=3;" vertex="1" parent="1">
          <mxGeometry x="791" y="2737" width="19" height="17" as="geometry" />
        </mxCell>
        <mxCell id="_VPIxrVI58AnDgxVty4J-42" value="" style="ellipse;whiteSpace=wrap;html=1;fillColor=#f8cecc;strokeColor=#FF0080;strokeWidth=3;" vertex="1" parent="1">
          <mxGeometry x="793" y="2762" width="19" height="17" as="geometry" />
        </mxCell>
        <mxCell id="_VPIxrVI58AnDgxVty4J-43" value="" style="ellipse;whiteSpace=wrap;html=1;fillColor=#f8cecc;strokeColor=#FF0080;strokeWidth=3;" vertex="1" parent="1">
          <mxGeometry x="793" y="2787" width="19" height="17" as="geometry" />
        </mxCell>
        <mxCell id="_VPIxrVI58AnDgxVty4J-44" value="&lt;font size=&quot;1&quot;&gt;&lt;b style=&quot;font-size: 17px;&quot;&gt;Internet&lt;/b&gt;&lt;/font&gt;" style="verticalLabelPosition=bottom;html=1;verticalAlign=top;align=center;strokeColor=none;fillColor=#00BEF2;shape=mxgraph.azure.cloud;shadow=1;glass=0;dashed=1;sketch=0;strokeWidth=1;" vertex="1" parent="1">
          <mxGeometry x="530" y="2749" width="127" height="86" as="geometry" />
        </mxCell>
        <mxCell id="_VPIxrVI58AnDgxVty4J-45" value="" style="ellipse;whiteSpace=wrap;html=1;fillColor=#f8cecc;strokeColor=#FF0080;strokeWidth=3;" vertex="1" parent="1">
          <mxGeometry x="626.5" y="2889" width="19" height="17" as="geometry" />
        </mxCell>
        <mxCell id="_VPIxrVI58AnDgxVty4J-46" value="" style="ellipse;whiteSpace=wrap;html=1;fillColor=#d5e8d4;strokeColor=#0000CC;strokeWidth=3;" vertex="1" parent="1">
          <mxGeometry x="628.5" y="2941" width="19" height="17" as="geometry" />
        </mxCell>
        <mxCell id="_VPIxrVI58AnDgxVty4J-50" value="" style="ellipse;whiteSpace=wrap;html=1;fillColor=#d5e8d4;strokeColor=#0000CC;strokeWidth=3;" vertex="1" parent="1">
          <mxGeometry x="566.5" y="2941" width="19" height="17" as="geometry" />
        </mxCell>
        <mxCell id="_VPIxrVI58AnDgxVty4J-51" value="" style="ellipse;whiteSpace=wrap;html=1;fillColor=#f8cecc;strokeColor=#FF0080;strokeWidth=3;" vertex="1" parent="1">
          <mxGeometry x="565.5" y="2888" width="19" height="17" as="geometry" />
        </mxCell>
        <mxCell id="_VPIxrVI58AnDgxVty4J-52" value="&lt;b&gt;Alsmeer / Site ID 01&lt;br&gt;&lt;/b&gt;" style="text;html=1;resizable=0;autosize=1;align=center;verticalAlign=middle;points=[];fillColor=none;strokeColor=none;rounded=0;shadow=1;glass=0;dashed=1;sketch=0;strokeWidth=1;fontSize=17;" vertex="1" parent="1">
          <mxGeometry x="179" y="2636" width="176" height="32" as="geometry" />
        </mxCell>
        <mxCell id="_VPIxrVI58AnDgxVty4J-53" value="&lt;b&gt;Almere / Site ID 02&lt;/b&gt;" style="text;html=1;resizable=0;autosize=1;align=center;verticalAlign=middle;points=[];fillColor=none;strokeColor=none;rounded=0;shadow=1;glass=0;dashed=1;sketch=0;strokeWidth=1;fontSize=17;" vertex="1" parent="1">
          <mxGeometry x="785" y="2637" width="166" height="32" as="geometry" />
        </mxCell>
        <mxCell id="_VPIxrVI58AnDgxVty4J-54" value="&lt;b&gt;Kantoor / Site ID 100&lt;/b&gt;" style="text;html=1;resizable=0;autosize=1;align=center;verticalAlign=middle;points=[];fillColor=none;strokeColor=none;rounded=0;shadow=1;glass=0;dashed=1;sketch=0;strokeWidth=1;fontSize=17;" vertex="1" parent="1">
          <mxGeometry x="529.5" y="3038" width="183" height="32" as="geometry" />
        </mxCell>
        <mxCell id="_VPIxrVI58AnDgxVty4J-62" value="" style="sketch=0;aspect=fixed;pointerEvents=1;shadow=0;dashed=0;html=1;strokeColor=none;labelPosition=center;verticalLabelPosition=bottom;verticalAlign=top;align=center;fillColor=#00188D;shape=mxgraph.azure.enterprise;glass=0;strokeWidth=1;fontSize=12;" vertex="1" parent="1">
          <mxGeometry x="530" y="2981" width="30" height="50" as="geometry" />
        </mxCell>
        <mxCell id="_VPIxrVI58AnDgxVty4J-63" value="" style="shadow=0;dashed=0;html=1;strokeColor=none;fillColor=#4495D1;labelPosition=center;verticalLabelPosition=bottom;verticalAlign=top;align=center;outlineConnect=0;shape=mxgraph.veeam.building;glass=0;sketch=0;strokeWidth=1;fontSize=12;" vertex="1" parent="1">
          <mxGeometry x="367.8" y="2619" width="46.2" height="42" as="geometry" />
        </mxCell>
        <mxCell id="_VPIxrVI58AnDgxVty4J-64" value="" style="shadow=0;dashed=0;html=1;strokeColor=none;fillColor=#4495D1;labelPosition=center;verticalLabelPosition=bottom;verticalAlign=top;align=center;outlineConnect=0;shape=mxgraph.veeam.building;glass=0;sketch=0;strokeWidth=1;fontSize=12;" vertex="1" parent="1">
          <mxGeometry x="954" y="2623" width="46.2" height="42" as="geometry" />
        </mxCell>
        <mxCell id="_VPIxrVI58AnDgxVty4J-84" value="&lt;b style=&quot;font-size: 13px;&quot;&gt;&lt;font style=&quot;font-size: 13px;&quot;&gt;Static NAT (1:1)&lt;/font&gt;&lt;/b&gt;" style="text;html=1;resizable=0;autosize=1;align=center;verticalAlign=middle;points=[];fillColor=none;strokeColor=none;rounded=0;shadow=1;glass=0;dashed=1;sketch=0;fillStyle=auto;strokeWidth=1;fontSize=13;opacity=30;rotation=90;" vertex="1" parent="1">
          <mxGeometry x="388" y="2736" width="114" height="28" as="geometry" />
        </mxCell>
        <mxCell id="_VPIxrVI58AnDgxVty4J-85" value="" style="ellipse;whiteSpace=wrap;html=1;fillColor=#f8cecc;strokeColor=#FF0080;strokeWidth=3;" vertex="1" parent="1">
          <mxGeometry x="230" y="2979.5" width="19" height="17" as="geometry" />
        </mxCell>
        <mxCell id="_VPIxrVI58AnDgxVty4J-87" value="" style="ellipse;whiteSpace=wrap;html=1;fillColor=#d5e8d4;strokeColor=#0000CC;strokeWidth=3;" vertex="1" parent="1">
          <mxGeometry x="230" y="3013.5" width="19" height="17" as="geometry" />
        </mxCell>
        <mxCell id="_VPIxrVI58AnDgxVty4J-88" value="Public IP address; internet color " style="text;html=1;resizable=0;autosize=1;align=center;verticalAlign=middle;points=[];fillColor=none;strokeColor=none;rounded=0;shadow=1;glass=0;dashed=1;sketch=0;fillStyle=auto;strokeWidth=1;fontSize=12;opacity=30;rotation=0;" vertex="1" parent="1">
          <mxGeometry x="251" y="2975" width="183" height="26" as="geometry" />
        </mxCell>
        <mxCell id="_VPIxrVI58AnDgxVty4J-89" value="Private IP address; mpls color " style="text;html=1;resizable=0;autosize=1;align=center;verticalAlign=middle;points=[];fillColor=none;strokeColor=none;rounded=0;shadow=1;glass=0;dashed=1;sketch=0;fillStyle=auto;strokeWidth=1;fontSize=12;opacity=30;rotation=0;" vertex="1" parent="1">
          <mxGeometry x="258.5" y="3009" width="174" height="26" as="geometry" />
        </mxCell>
        <mxCell id="_VPIxrVI58AnDgxVty4J-90" value="&lt;font size=&quot;1&quot;&gt;&lt;b style=&quot;font-size: 18px;&quot;&gt;MPLS [IPVPN]&lt;br&gt;&lt;/b&gt;&lt;/font&gt;" style="verticalLabelPosition=bottom;html=1;verticalAlign=top;align=center;strokeColor=none;fillColor=#00BEF2;shape=mxgraph.azure.cloud;shadow=1;glass=0;dashed=1;sketch=0;strokeWidth=1;" vertex="1" parent="1">
          <mxGeometry x="336" y="3101" width="594" height="108" as="geometry" />
        </mxCell>
        <mxCell id="_VPIxrVI58AnDgxVty4J-98" value="&lt;div&gt;System IP:&lt;/div&gt;&lt;div&gt;&lt;b&gt;&lt;font style=&quot;font-size: 11px;&quot;&gt;172.20.100.1&lt;/font&gt;&lt;/b&gt;&lt;/div&gt;" style="text;html=1;resizable=0;autosize=1;align=center;verticalAlign=middle;points=[];fillColor=none;strokeColor=none;rounded=0;shadow=1;glass=0;dashed=1;sketch=0;fillStyle=auto;strokeWidth=1;fontSize=13;opacity=30;rotation=0;" vertex="1" parent="1">
          <mxGeometry x="475" y="2906" width="85" height="43" as="geometry" />
        </mxCell>
        <mxCell id="_VPIxrVI58AnDgxVty4J-102" value="&lt;font&gt;vB&lt;/font&gt;" style="text;html=1;resizable=0;autosize=1;align=center;verticalAlign=middle;points=[];fillColor=none;strokeColor=none;rounded=0;shadow=1;glass=0;dashed=1;sketch=0;fillStyle=auto;strokeWidth=1;fontSize=13;opacity=30;rotation=0;fontColor=#FF00FF;fontStyle=1" vertex="1" parent="1">
          <mxGeometry x="752" y="2731" width="35" height="28" as="geometry" />
        </mxCell>
        <mxCell id="_VPIxrVI58AnDgxVty4J-104" value="&lt;font color=&quot;#FF00FF&quot;&gt;vM&lt;/font&gt;" style="text;html=1;resizable=0;autosize=1;align=center;verticalAlign=middle;points=[];fillColor=none;strokeColor=none;rounded=0;shadow=1;glass=0;dashed=1;sketch=0;fillStyle=auto;strokeWidth=1;fontSize=13;opacity=30;rotation=0;fontStyle=1" vertex="1" parent="1">
          <mxGeometry x="753" y="2755" width="36" height="28" as="geometry" />
        </mxCell>
        <mxCell id="_VPIxrVI58AnDgxVty4J-105" value="&lt;font color=&quot;#FF00FF&quot;&gt;vS&lt;/font&gt;" style="text;html=1;resizable=0;autosize=1;align=center;verticalAlign=middle;points=[];fillColor=none;strokeColor=none;rounded=0;shadow=1;glass=0;dashed=1;sketch=0;fillStyle=auto;strokeWidth=1;fontSize=13;opacity=30;rotation=0;fontStyle=1" vertex="1" parent="1">
          <mxGeometry x="757" y="2783" width="34" height="28" as="geometry" />
        </mxCell>
        <mxCell id="_VPIxrVI58AnDgxVty4J-11" value="" style="ellipse;whiteSpace=wrap;html=1;fillColor=#f8cecc;strokeColor=#FF0080;strokeWidth=3;" vertex="1" parent="1">
          <mxGeometry x="398" y="2716" width="19" height="17" as="geometry" />
        </mxCell>
        <mxCell id="_VPIxrVI58AnDgxVty4J-108" value="" style="sketch=0;points=[[0.5,0,0],[1,0.5,0],[0.5,1,0],[0,0.5,0],[0.145,0.145,0],[0.8555,0.145,0],[0.855,0.8555,0],[0.145,0.855,0]];verticalLabelPosition=bottom;html=1;verticalAlign=top;aspect=fixed;align=center;pointerEvents=1;shape=mxgraph.cisco19.rect;prIcon=router;fillColor=#FAFAFA;strokeColor=#005073;" vertex="1" parent="1">
          <mxGeometry x="261.5" y="2904" width="38" height="38" as="geometry" />
        </mxCell>
        <mxCell id="_VPIxrVI58AnDgxVty4J-109" value="" style="ellipse;whiteSpace=wrap;html=1;fillColor=#f8cecc;strokeColor=#FF0080;strokeWidth=3;" vertex="1" parent="1">
          <mxGeometry x="270.5" y="2887" width="19" height="17" as="geometry" />
        </mxCell>
        <mxCell id="_VPIxrVI58AnDgxVty4J-110" value="" style="ellipse;whiteSpace=wrap;html=1;fillColor=#d5e8d4;strokeColor=#0000CC;strokeWidth=3;" vertex="1" parent="1">
          <mxGeometry x="271.5" y="2940" width="19" height="17" as="geometry" />
        </mxCell>
        <mxCell id="_VPIxrVI58AnDgxVty4J-111" value="" style="sketch=0;points=[[0.5,0,0],[1,0.5,0],[0.5,1,0],[0,0.5,0],[0.145,0.145,0],[0.8555,0.145,0],[0.855,0.8555,0],[0.145,0.855,0]];verticalLabelPosition=bottom;html=1;verticalAlign=top;aspect=fixed;align=center;pointerEvents=1;shape=mxgraph.cisco19.rect;prIcon=router;fillColor=#FAFAFA;strokeColor=#005073;" vertex="1" parent="1">
          <mxGeometry x="323.5" y="2904" width="39" height="39" as="geometry" />
        </mxCell>
        <mxCell id="_VPIxrVI58AnDgxVty4J-112" value="" style="ellipse;whiteSpace=wrap;html=1;fillColor=#f8cecc;strokeColor=#FF0080;strokeWidth=3;" vertex="1" parent="1">
          <mxGeometry x="331.5" y="2888" width="19" height="17" as="geometry" />
        </mxCell>
        <mxCell id="_VPIxrVI58AnDgxVty4J-113" value="" style="ellipse;whiteSpace=wrap;html=1;fillColor=#d5e8d4;strokeColor=#0000CC;strokeWidth=3;" vertex="1" parent="1">
          <mxGeometry x="333.5" y="2940" width="19" height="17" as="geometry" />
        </mxCell>
        <mxCell id="_VPIxrVI58AnDgxVty4J-114" value="" style="sketch=0;points=[[0.5,0,0],[1,0.5,0],[0.5,1,0],[0,0.5,0],[0.145,0.145,0],[0.8555,0.145,0],[0.855,0.8555,0],[0.145,0.855,0]];verticalLabelPosition=bottom;html=1;verticalAlign=top;aspect=fixed;align=center;pointerEvents=1;shape=mxgraph.cisco19.rect;prIcon=router;fillColor=#FAFAFA;strokeColor=#005073;" vertex="1" parent="1">
          <mxGeometry x="873" y="2902" width="38" height="38" as="geometry" />
        </mxCell>
        <mxCell id="_VPIxrVI58AnDgxVty4J-115" value="" style="ellipse;whiteSpace=wrap;html=1;fillColor=#f8cecc;strokeColor=#FF0080;strokeWidth=3;" vertex="1" parent="1">
          <mxGeometry x="882" y="2885" width="19" height="17" as="geometry" />
        </mxCell>
        <mxCell id="_VPIxrVI58AnDgxVty4J-116" value="" style="ellipse;whiteSpace=wrap;html=1;fillColor=#d5e8d4;strokeColor=#0000CC;strokeWidth=3;" vertex="1" parent="1">
          <mxGeometry x="883" y="2938" width="19" height="17" as="geometry" />
        </mxCell>
        <mxCell id="_VPIxrVI58AnDgxVty4J-117" value="" style="sketch=0;points=[[0.5,0,0],[1,0.5,0],[0.5,1,0],[0,0.5,0],[0.145,0.145,0],[0.8555,0.145,0],[0.855,0.8555,0],[0.145,0.855,0]];verticalLabelPosition=bottom;html=1;verticalAlign=top;aspect=fixed;align=center;pointerEvents=1;shape=mxgraph.cisco19.rect;prIcon=router;fillColor=#FAFAFA;strokeColor=#005073;" vertex="1" parent="1">
          <mxGeometry x="935" y="2902" width="39" height="39" as="geometry" />
        </mxCell>
        <mxCell id="_VPIxrVI58AnDgxVty4J-118" value="" style="ellipse;whiteSpace=wrap;html=1;fillColor=#f8cecc;strokeColor=#FF0080;strokeWidth=3;" vertex="1" parent="1">
          <mxGeometry x="943" y="2886" width="19" height="17" as="geometry" />
        </mxCell>
        <mxCell id="_VPIxrVI58AnDgxVty4J-119" value="" style="ellipse;whiteSpace=wrap;html=1;fillColor=#d5e8d4;strokeColor=#0000CC;strokeWidth=3;" vertex="1" parent="1">
          <mxGeometry x="945" y="2938" width="19" height="17" as="geometry" />
        </mxCell>
        <mxCell id="_VPIxrVI58AnDgxVty4J-121" value="" style="group" vertex="1" connectable="0" parent="1">
          <mxGeometry x="70" y="2641" width="953" height="667" as="geometry" />
        </mxCell>
        <mxCell id="_VPIxrVI58AnDgxVty4J-94" value="" style="curved=1;endArrow=classic;html=1;rounded=0;fontSize=18;exitX=0.5;exitY=0;exitDx=0;exitDy=0;entryX=0.426;entryY=0.175;entryDx=0;entryDy=0;entryPerimeter=0;dashed=1;dashPattern=1 4;strokeColor=#FF1957;strokeWidth=2;" edge="1" parent="_VPIxrVI58AnDgxVty4J-121">
          <mxGeometry width="50" height="50" relative="1" as="geometry">
            <mxPoint x="508.0000000000002" y="246.99999999999955" as="sourcePoint" />
            <mxPoint x="202.0300000000002" y="181.00000000000045" as="targetPoint" />
            <Array as="points">
              <mxPoint x="533" y="226" />
              <mxPoint x="593" y="41" />
            </Array>
          </mxGeometry>
        </mxCell>
        <mxCell id="_VPIxrVI58AnDgxVty4J-95" value="" style="curved=1;endArrow=classic;html=1;rounded=0;fontSize=18;entryX=0.677;entryY=0.117;entryDx=0;entryDy=0;entryPerimeter=0;dashed=1;dashPattern=1 4;strokeColor=#FF0080;strokeWidth=2;" edge="1" parent="_VPIxrVI58AnDgxVty4J-121">
          <mxGeometry width="50" height="50" relative="1" as="geometry">
            <mxPoint x="511.5" y="246" as="sourcePoint" />
            <mxPoint x="886.935" y="177.01999999999998" as="targetPoint" />
            <Array as="points">
              <mxPoint x="578" y="210" />
              <mxPoint x="571" y="111" />
            </Array>
          </mxGeometry>
        </mxCell>
        <mxCell id="_VPIxrVI58AnDgxVty4J-96" value="" style="curved=1;endArrow=classic;html=1;rounded=0;fontSize=18;exitX=0;exitY=1;exitDx=0;exitDy=0;entryX=0.052;entryY=0.608;entryDx=0;entryDy=0;entryPerimeter=0;dashed=1;dashPattern=1 1;strokeColor=#0000FF;" edge="1" parent="_VPIxrVI58AnDgxVty4J-121">
          <mxGeometry width="50" height="50" relative="1" as="geometry">
            <mxPoint x="502.33615158390285" y="314.5580440146332" as="sourcePoint" />
            <mxPoint x="144.06000000000017" y="206.98000000000002" as="targetPoint" />
            <Array as="points">
              <mxPoint x="596" y="542" />
              <mxPoint x="367" y="625" />
              <mxPoint x="83" y="404" />
            </Array>
          </mxGeometry>
        </mxCell>
        <mxCell id="_VPIxrVI58AnDgxVty4J-97" value="" style="curved=1;endArrow=classic;html=1;rounded=0;fontSize=13;exitX=0.5;exitY=1;exitDx=0;exitDy=0;entryX=0.89;entryY=0.683;entryDx=0;entryDy=0;entryPerimeter=0;dashed=1;dashPattern=1 1;strokeColor=#0000CC;" edge="1" parent="_VPIxrVI58AnDgxVty4J-121">
          <mxGeometry width="50" height="50" relative="1" as="geometry">
            <mxPoint x="509" y="316.99999999999955" as="sourcePoint" />
            <mxPoint x="919.9499999999998" y="210.98000000000047" as="targetPoint" />
            <Array as="points">
              <mxPoint x="751" y="667" />
              <mxPoint x="953" y="347" />
            </Array>
          </mxGeometry>
        </mxCell>
        <mxCell id="_VPIxrVI58AnDgxVty4J-107" value="" style="curved=1;endArrow=classic;html=1;rounded=0;dashed=1;dashPattern=1 4;strokeColor=#FF00FF;strokeWidth=2;fontSize=12;fontColor=#FF00FF;exitX=0;exitY=0;exitDx=0;exitDy=0;entryX=0.129;entryY=0.064;entryDx=0;entryDy=0;entryPerimeter=0;" edge="1" parent="_VPIxrVI58AnDgxVty4J-121">
          <mxGeometry width="50" height="50" relative="1" as="geometry">
            <mxPoint x="501.336151583974" y="249.44195598542956" as="sourcePoint" />
            <mxPoint x="211.837" y="63.164000000000215" as="targetPoint" />
            <Array as="points">
              <mxPoint x="596" />
              <mxPoint x="416" y="110" />
            </Array>
          </mxGeometry>
        </mxCell>
        <mxCell id="_VPIxrVI58AnDgxVty4J-120" value="" style="curved=1;endArrow=classic;html=1;rounded=0;dashed=1;strokeColor=#0000CC;strokeWidth=1;fontSize=12;fontColor=#FF00FF;exitX=0.5;exitY=1;exitDx=0;exitDy=0;entryX=0.5;entryY=1;entryDx=0;entryDy=0;dashPattern=1 1;" edge="1" parent="_VPIxrVI58AnDgxVty4J-121">
          <mxGeometry width="50" height="50" relative="1" as="geometry">
            <mxPoint x="509" y="316.99999999999955" as="sourcePoint" />
            <mxPoint x="150.50000000000023" y="141.99999999999955" as="targetPoint" />
            <Array as="points">
              <mxPoint x="518" y="534" />
              <mxPoint x="272" y="593" />
              <mxPoint y="405" />
            </Array>
          </mxGeometry>
        </mxCell>
        <mxCell id="_VPIxrVI58AnDgxVty4J-100" value="DTLS/TLS control connection " style="text;html=1;resizable=0;autosize=1;align=center;verticalAlign=middle;points=[];fillColor=none;strokeColor=none;rounded=0;shadow=1;glass=0;dashed=1;sketch=0;fillStyle=auto;strokeWidth=1;fontSize=13;opacity=30;rotation=0;" vertex="1" parent="_VPIxrVI58AnDgxVty4J-121">
          <mxGeometry x="108" y="439" width="188" height="28" as="geometry" />
        </mxCell>
        <mxCell id="_VPIxrVI58AnDgxVty4J-123" value="" style="rounded=1;whiteSpace=wrap;html=1;strokeColor=#0000CC;strokeWidth=1;shadow=1;sketch=0;glass=0;rotation=90;" vertex="1" parent="1">
          <mxGeometry x="583" y="3500.5" width="131" height="397" as="geometry" />
        </mxCell>
        <mxCell id="_VPIxrVI58AnDgxVty4J-124" value="" style="sketch=0;points=[[0.5,0,0],[1,0.5,0],[0.5,1,0],[0,0.5,0],[0.145,0.145,0],[0.8555,0.145,0],[0.855,0.8555,0],[0.145,0.855,0]];verticalLabelPosition=bottom;html=1;verticalAlign=top;aspect=fixed;align=center;pointerEvents=1;shape=mxgraph.cisco19.rect;prIcon=vmanage;fillColor=#FAFAFA;strokeColor=#005073;" vertex="1" parent="1">
          <mxGeometry x="592" y="3653" width="50" height="50" as="geometry" />
        </mxCell>
        <mxCell id="_VPIxrVI58AnDgxVty4J-125" value="" style="sketch=0;points=[[0.5,0,0],[1,0.5,0],[0.5,1,0],[0,0.5,0],[0.145,0.145,0],[0.8555,0.145,0],[0.855,0.8555,0],[0.145,0.855,0]];verticalLabelPosition=bottom;html=1;verticalAlign=top;aspect=fixed;align=center;pointerEvents=1;shape=mxgraph.cisco19.rect;prIcon=vsmart;fillColor=#FAFAFA;strokeColor=#005073;" vertex="1" parent="1">
          <mxGeometry x="721" y="3653" width="50" height="50" as="geometry" />
        </mxCell>
        <mxCell id="_VPIxrVI58AnDgxVty4J-126" value="" style="sketch=0;points=[[0.5,0,0],[1,0.5,0],[0.5,1,0],[0,0.5,0],[0.145,0.145,0],[0.8555,0.145,0],[0.855,0.8555,0],[0.145,0.855,0]];verticalLabelPosition=bottom;html=1;verticalAlign=top;aspect=fixed;align=center;pointerEvents=1;shape=mxgraph.cisco19.rect;prIcon=vbond;fillColor=#FAFAFA;strokeColor=#005073;" vertex="1" parent="1">
          <mxGeometry x="483" y="3654" width="50" height="50" as="geometry" />
        </mxCell>
        <mxCell id="_VPIxrVI58AnDgxVty4J-127" value="" style="ellipse;whiteSpace=wrap;html=1;fillColor=#d5e8d4;strokeColor=#0000CC;strokeWidth=3;" vertex="1" parent="1">
          <mxGeometry x="498" y="3636" width="19" height="17" as="geometry" />
        </mxCell>
        <mxCell id="_VPIxrVI58AnDgxVty4J-128" value="" style="ellipse;whiteSpace=wrap;html=1;fillColor=#d5e8d4;strokeColor=#0000CC;strokeWidth=3;" vertex="1" parent="1">
          <mxGeometry x="606" y="3635" width="19" height="17" as="geometry" />
        </mxCell>
        <mxCell id="_VPIxrVI58AnDgxVty4J-129" value="" style="ellipse;whiteSpace=wrap;html=1;fillColor=#d5e8d4;strokeColor=#0000CC;strokeWidth=3;" vertex="1" parent="1">
          <mxGeometry x="736.5" y="3635" width="19" height="17" as="geometry" />
        </mxCell>
        <mxCell id="_VPIxrVI58AnDgxVty4J-131" value="&lt;b&gt;&lt;font style=&quot;font-size: 15px;&quot;&gt;ESXi Host&lt;/font&gt;&lt;/b&gt;" style="text;html=1;resizable=0;autosize=1;align=center;verticalAlign=middle;points=[];fillColor=none;strokeColor=none;rounded=0;shadow=1;glass=0;dashed=1;sketch=0;strokeWidth=1;fontSize=12;" vertex="1" parent="1">
          <mxGeometry x="461" y="3736" width="90" height="30" as="geometry" />
        </mxCell>
        <mxCell id="_VPIxrVI58AnDgxVty4J-132" value="&lt;b&gt;&lt;font style=&quot;font-size: 15px;&quot;&gt;Internet FW&lt;/font&gt;&lt;/b&gt;" style="text;html=1;resizable=0;autosize=1;align=center;verticalAlign=middle;points=[];fillColor=none;strokeColor=none;rounded=0;shadow=1;glass=0;dashed=1;sketch=0;strokeWidth=1;fontSize=12;" vertex="1" parent="1">
          <mxGeometry x="306.4" y="3529" width="101" height="30" as="geometry" />
        </mxCell>
        <mxCell id="_VPIxrVI58AnDgxVty4J-136" value="" style="rounded=1;whiteSpace=wrap;html=1;strokeColor=#0000CC;strokeWidth=1;shadow=1;sketch=0;glass=0;rotation=90;" vertex="1" parent="1">
          <mxGeometry x="600" y="3273" width="88" height="479" as="geometry" />
        </mxCell>
        <mxCell id="_VPIxrVI58AnDgxVty4J-138" value="" style="image;html=1;image=img/lib/clip_art/networking/Firewall_02_128x128.png;shadow=1;glass=0;dashed=1;sketch=0;fillStyle=solid;strokeColor=#B81244;strokeWidth=1;fontSize=15;fontColor=#FF00FF;fillColor=default;gradientColor=none;" vertex="1" parent="1">
          <mxGeometry x="409" y="3472" width="59" height="57" as="geometry" />
        </mxCell>
        <mxCell id="_VPIxrVI58AnDgxVty4J-139" value="" style="ellipse;whiteSpace=wrap;html=1;fillColor=#f8cecc;strokeColor=#FF00FF;strokeWidth=3;" vertex="1" parent="1">
          <mxGeometry x="498" y="3557" width="19" height="17" as="geometry" />
        </mxCell>
        <mxCell id="_VPIxrVI58AnDgxVty4J-140" value="" style="ellipse;whiteSpace=wrap;html=1;fillColor=#f8cecc;strokeColor=#FF00FF;strokeWidth=3;" vertex="1" parent="1">
          <mxGeometry x="602" y="3557" width="19" height="17" as="geometry" />
        </mxCell>
        <mxCell id="_VPIxrVI58AnDgxVty4J-141" value="" style="ellipse;whiteSpace=wrap;html=1;fillColor=#f8cecc;strokeColor=#FF00FF;strokeWidth=3;" vertex="1" parent="1">
          <mxGeometry x="733" y="3557" width="19" height="17" as="geometry" />
        </mxCell>
        <mxCell id="_VPIxrVI58AnDgxVty4J-142" value="" style="curved=1;endArrow=classic;html=1;rounded=0;dashed=1;dashPattern=1 1;strokeColor=#FF00FF;strokeWidth=2;fontSize=15;fontColor=#FF00FF;entryX=-0.004;entryY=0.864;entryDx=0;entryDy=0;entryPerimeter=0;" edge="1" parent="1" target="_VPIxrVI58AnDgxVty4J-123">
          <mxGeometry width="50" height="50" relative="1" as="geometry">
            <mxPoint x="615" y="3633" as="sourcePoint" />
            <mxPoint x="600" y="3462" as="targetPoint" />
            <Array as="points">
              <mxPoint x="615" y="3512" />
              <mxPoint x="491" y="3478" />
            </Array>
          </mxGeometry>
        </mxCell>
        <mxCell id="_VPIxrVI58AnDgxVty4J-143" value="" style="curved=1;endArrow=classic;html=1;rounded=0;dashed=1;dashPattern=1 1;strokeColor=#FF00FF;strokeWidth=2;fontSize=15;fontColor=#FF00FF;entryX=0.5;entryY=0;entryDx=0;entryDy=0;" edge="1" parent="1" target="_VPIxrVI58AnDgxVty4J-127">
          <mxGeometry width="50" height="50" relative="1" as="geometry">
            <mxPoint x="746" y="3633" as="sourcePoint" />
            <mxPoint x="600" y="3462" as="targetPoint" />
            <Array as="points">
              <mxPoint x="755" y="3485" />
              <mxPoint x="500" y="3470" />
            </Array>
          </mxGeometry>
        </mxCell>
        <mxCell id="_VPIxrVI58AnDgxVty4J-144" value="" style="curved=1;endArrow=classic;html=1;rounded=0;dashed=1;dashPattern=1 1;strokeColor=#3333FF;strokeWidth=2;fontSize=15;fontColor=#FF00FF;exitX=0;exitY=0.5;exitDx=0;exitDy=0;entryX=1;entryY=0;entryDx=0;entryDy=0;fillColor=#dae8fc;" edge="1" parent="1" source="_VPIxrVI58AnDgxVty4J-129" target="_VPIxrVI58AnDgxVty4J-128">
          <mxGeometry width="50" height="50" relative="1" as="geometry">
            <mxPoint x="550" y="3512" as="sourcePoint" />
            <mxPoint x="600" y="3462" as="targetPoint" />
            <Array as="points">
              <mxPoint x="736" y="3748" />
              <mxPoint x="648" y="3754" />
            </Array>
          </mxGeometry>
        </mxCell>
        <mxCell id="_VPIxrVI58AnDgxVty4J-145" value="&lt;b&gt;&lt;font style=&quot;font-size: 15px;&quot;&gt;Static (1:1) Nat&lt;br&gt;&lt;/font&gt;&lt;/b&gt;" style="text;html=1;resizable=0;autosize=1;align=center;verticalAlign=middle;points=[];fillColor=none;strokeColor=none;rounded=0;shadow=1;glass=0;dashed=1;sketch=0;strokeWidth=1;fontSize=12;" vertex="1" parent="1">
          <mxGeometry x="315" y="3584" width="123" height="30" as="geometry" />
        </mxCell>
        <mxCell id="_VPIxrVI58AnDgxVty4J-146" value="" style="shape=curlyBracket;whiteSpace=wrap;html=1;rounded=1;flipH=1;shadow=1;glass=0;sketch=0;fillStyle=solid;strokeColor=#000000;strokeWidth=1;fontSize=15;fontColor=#FF00FF;fillColor=default;gradientColor=none;rotation=-180;" vertex="1" parent="1">
          <mxGeometry x="440" y="3564" width="20" height="65" as="geometry" />
        </mxCell>
        <mxCell id="_VPIxrVI58AnDgxVty4J-148" value="Public IP address" style="text;html=1;resizable=0;autosize=1;align=center;verticalAlign=middle;points=[];fillColor=none;strokeColor=none;rounded=0;shadow=1;glass=0;dashed=1;sketch=0;fillStyle=auto;strokeWidth=1;fontSize=12;opacity=30;rotation=0;" vertex="1" parent="1">
          <mxGeometry x="302.5" y="3714" width="109" height="26" as="geometry" />
        </mxCell>
        <mxCell id="_VPIxrVI58AnDgxVty4J-149" value="Private IP address " style="text;html=1;resizable=0;autosize=1;align=center;verticalAlign=middle;points=[];fillColor=none;strokeColor=none;rounded=0;shadow=1;glass=0;dashed=1;sketch=0;fillStyle=auto;strokeWidth=1;fontSize=12;opacity=30;rotation=0;" vertex="1" parent="1">
          <mxGeometry x="300" y="3748" width="113" height="26" as="geometry" />
        </mxCell>
        <mxCell id="_VPIxrVI58AnDgxVty4J-150" value="" style="ellipse;whiteSpace=wrap;html=1;fillColor=#f8cecc;strokeColor=#FF0080;strokeWidth=3;" vertex="1" parent="1">
          <mxGeometry x="278" y="3718.5" width="19" height="17" as="geometry" />
        </mxCell>
        <mxCell id="_VPIxrVI58AnDgxVty4J-151" value="" style="ellipse;whiteSpace=wrap;html=1;fillColor=#d5e8d4;strokeColor=#0000CC;strokeWidth=3;" vertex="1" parent="1">
          <mxGeometry x="278" y="3752.5" width="19" height="17" as="geometry" />
        </mxCell>
      </root>
    </mxGraphModel>
  </diagram>
</mxfile>
